<svg xmlns="http://www.w3.org/2000/svg" width="43.187" height="43.022" viewBox="0 0 43.187 43.022">
  <g id="Raggruppa_614" data-name="Raggruppa 614" transform="translate(-334.813 -633.977)">
    <g id="Raggruppa_611" data-name="Raggruppa 611" transform="translate(-66.5 -448)">
      <path id="Tracciato_1989" data-name="Tracciato 1989" d="M-379.049,481.778s-6.749.794-10.061.794a59,59,0,0,1-11.12-1.191c-6.883-1.456-7.678-3.574-9.4-10.722a91.9,91.9,0,0,1-1.059-10.458c0-3.707.4-8.34.4-8.34,1.191-6.222,1.372-9.52,7.755-11.177,0,0,8.773-1.134,13.557-1.134a118.875,118.875,0,0,1,11.986.929c4.128.437,8.179,2.936,8.6,8.068a78.116,78.116,0,0,1,.89,10.247,105.132,105.132,0,0,1-1.339,14.463C-370.251,479.217-372.467,480.819-379.049,481.778Z" transform="translate(812 642.427)" fill="#143f59"/>
    </g>
    <path id="youtube" d="M41.85,67.025a3.454,3.454,0,0,0-2.431-2.446C37.276,64,28.679,64,28.679,64s-8.6,0-10.741.578a3.454,3.454,0,0,0-2.431,2.446,38.894,38.894,0,0,0,0,13.32,3.4,3.4,0,0,0,2.431,2.407c2.144.578,10.741.578,10.741.578s8.6,0,10.741-.578a3.4,3.4,0,0,0,2.431-2.407,38.894,38.894,0,0,0,0-13.32ZM25.867,77.772V69.6l7.185,4.088-7.185,4.088Z" transform="translate(327.728 581.823)" fill="#fff"/>
  </g>
</svg>
