<svg data-name="Raggruppa 376" xmlns="http://www.w3.org/2000/svg" xmlns:xlink="http://www.w3.org/1999/xlink" width="18.04" height="16.39" viewBox="0 0 18.04 16.39">
  <g id="Raggruppa_374" data-name="Raggruppa 374">
    <path id="Tracciato_1878" data-name="Tracciato 1878" d="M134.138,15.852v-.413a5.8,5.8,0,0,0,2.882.773h5.729a1.637,1.637,0,0,0,1.655-1.543,1.606,1.606,0,0,0-.392-1.134,1.616,1.616,0,0,0,.483-2.586,1.617,1.617,0,0,0,0-2.8,1.619,1.619,0,0,0-1.17-2.741h-4.064l.487-2.437A2.481,2.481,0,0,0,137.316,0a.722.722,0,0,0-.707.579l-.649,3.247-1.92,3.017a.728.728,0,0,0-.15-.181.728.728,0,0,1,.142.174l.1,8.6" transform="translate(-127.267)" stroke="#0783ff"/>
    <path id="Tracciato_1879" data-name="Tracciato 1879" d="M5.247,137.9H.528A.528.528,0,0,1,0,137.375v-9.011a.527.527,0,0,1,.527-.527H5.247a.527.527,0,0,1,.527.527v9.011a.527.527,0,0,1-.527.528" transform="translate(-0.001 -121.512)" stroke="#0783ff"/>
  </g>
</svg>
