<svg xmlns="http://www.w3.org/2000/svg" width="43.187" height="43.022" viewBox="0 0 43.187 43.022">
  <g id="Raggruppa_616" data-name="Raggruppa 616" transform="translate(-231.607 -633.977)">
    <g id="Raggruppa_610" data-name="Raggruppa 610" transform="translate(-121.5 -448)">
      <path id="Tracciato_1990" data-name="Tracciato 1990" d="M-379.049,481.778s-6.749.794-10.061.794a59,59,0,0,1-11.12-1.191c-6.883-1.456-7.678-3.574-9.4-10.722a91.9,91.9,0,0,1-1.059-10.458c0-3.707.4-8.34.4-8.34,1.191-6.222,1.372-9.52,7.755-11.177,0,0,8.773-1.134,13.557-1.134a118.875,118.875,0,0,1,11.986.929c4.128.437,8.179,2.936,8.6,8.068a78.116,78.116,0,0,1,.89,10.247,105.132,105.132,0,0,1-1.339,14.463C-370.251,479.217-372.467,480.819-379.049,481.778Z" transform="translate(763.794 642.427)" fill="#6a8fa6"/>
    </g>
    <g id="Raggruppa_615" data-name="Raggruppa 615" transform="translate(-669.486 241.581)">
      <path id="Tracciato_2024" data-name="Tracciato 2024" d="M922.686,401.51c-7.566,0-13.7,5.393-13.7,12.047a11.174,11.174,0,0,0,3.225,7.76c-.3,1.844-1.3,2.784-3.225,3.66a9.054,9.054,0,0,0,7.751-.566,15.215,15.215,0,0,0,5.95,1.192c7.567,0,13.7-5.393,13.7-12.047S930.253,401.51,922.686,401.51Z" fill="none" stroke="#fff" stroke-linejoin="round" stroke-width="1.5"/>
      <text id="BLOG" transform="translate(912.645 417.275)" fill="#fff" font-size="9" font-family="Bebas"><tspan x="0" y="0">BLOG</tspan></text>
    </g>
  </g>
</svg>
