<svg xmlns="http://www.w3.org/2000/svg" width="43.187" height="43.022" viewBox="0 0 43.187 43.022">
  <g id="Raggruppa_612" data-name="Raggruppa 612" transform="translate(-353.107 -1081.977)">
    <path id="Tracciato_1990" data-name="Tracciato 1990" d="M-379.049,481.778s-6.749.794-10.061.794a59,59,0,0,1-11.12-1.191c-6.883-1.456-7.678-3.574-9.4-10.722a91.9,91.9,0,0,1-1.059-10.458c0-3.707.4-8.34.4-8.34,1.191-6.222,1.372-9.52,7.755-11.177,0,0,8.773-1.134,13.557-1.134a118.875,118.875,0,0,1,11.986.929c4.128.437,8.179,2.936,8.6,8.068a78.116,78.116,0,0,1,.89,10.247,105.132,105.132,0,0,1-1.339,14.463C-370.251,479.217-372.467,480.819-379.049,481.778Z" transform="translate(763.794 642.427)" fill="#1f5373"/>
    <g id="Raggruppa_613" data-name="Raggruppa 613" transform="translate(-651.496 851.505)">
      <path id="Tracciato_2020" data-name="Tracciato 2020" d="M1038.959,251.984a12.763,12.763,0,1,1-12.764-12.763A12.763,12.763,0,0,1,1038.959,251.984Z" transform="translate(0 0)" fill="#1f5373" stroke="#fff" stroke-miterlimit="10" stroke-width="1.5"/>
      <path id="Tracciato_2021" data-name="Tracciato 2021" d="M1044.267,251.984c0,7.049-2.858,12.763-6.382,12.763s-6.381-5.714-6.381-12.763,2.858-12.763,6.381-12.763S1044.267,244.936,1044.267,251.984Z" transform="translate(-11.69 0)" fill="#1f5373" stroke="#fff" stroke-miterlimit="10" stroke-width="1.5"/>
      <path id="Tracciato_2022" data-name="Tracciato 2022" d="M1041.615,251.461a22.287,22.287,0,0,1-19.138,0" transform="translate(-5.85 -7.917)" fill="#1f5373" stroke="#fff" stroke-miterlimit="10" stroke-width="1.5"/>
      <path id="Tracciato_2023" data-name="Tracciato 2023" d="M1022.642,295.56a20.089,20.089,0,0,1,9.511-2.126,20.692,20.692,0,0,1,9.025,1.869" transform="translate(-5.957 -35.069)" fill="#1f5373" stroke="#fff" stroke-miterlimit="10" stroke-width="1.5"/>
      <line id="Linea_437" data-name="Linea 437" y2="25.326" transform="translate(1026.196 239.321)" fill="none" stroke="#fff" stroke-miterlimit="10" stroke-width="1.5"/>
      <line id="Linea_438" data-name="Linea 438" x2="25.526" transform="translate(1013.433 251.984)" fill="none" stroke="#fff" stroke-miterlimit="10" stroke-width="1.5"/>
    </g>
  </g>
</svg>
