<svg xmlns="http://www.w3.org/2000/svg" width="43.187" height="43.022" viewBox="0 0 43.187 43.022">
  <g id="Raggruppa_609" data-name="Raggruppa 609" transform="translate(-401.313 -1081.977)">
    <path id="Tracciato_1989" data-name="Tracciato 1989" d="M-379.049,481.778s-6.749.794-10.061.794a59,59,0,0,1-11.12-1.191c-6.883-1.456-7.678-3.574-9.4-10.722a91.9,91.9,0,0,1-1.059-10.458c0-3.707.4-8.34.4-8.34,1.191-6.222,1.372-9.52,7.755-11.177,0,0,8.773-1.134,13.557-1.134a118.875,118.875,0,0,1,11.986.929c4.128.437,8.179,2.936,8.6,8.068a78.116,78.116,0,0,1,.89,10.247,105.132,105.132,0,0,1-1.339,14.463C-370.251,479.217-372.467,480.819-379.049,481.778Z" transform="translate(812 642.427)" fill="#143f59"/>
    <g id="Raggruppa_585" data-name="Raggruppa 585" transform="translate(410.81 1090.777)">
      <path id="Fill-182" d="M19.982,23.443a2.859,2.859,0,0,0,2.981-2.72A2.86,2.86,0,0,0,19.982,18,2.861,2.861,0,0,0,17,20.723a2.859,2.859,0,0,0,2.982,2.72" transform="translate(-17 -18)" fill="#fff" fill-rule="evenodd"/>
      <path id="Fill-183" d="M18,44.425h5.348V29H18Z" transform="translate(-17.317 -21.485)" fill="#fff" fill-rule="evenodd"/>
      <path id="Fill-184" d="M34.34,35.529c0-1.769.837-3.5,2.838-3.5s2.493,1.73,2.493,3.456v8.424H45V35.142C45,29.05,41.394,28,39.179,28s-3.434.749-4.839,2.563V28.486H29V43.911h5.34Z" transform="translate(-20.802 -21.168)" fill="#fff" fill-rule="evenodd"/>
    </g>
  </g>
</svg>
