<svg xmlns="http://www.w3.org/2000/svg" width="39.598" height="39.598" viewBox="0 0 39.598 39.598"><defs><style>.a{fill:none;stroke:#fff;stroke-linecap:round;stroke-linejoin:round;}.b{fill:#fff;}</style></defs><g transform="translate(-1521.701 -2.701)"><g transform="translate(1027.434 162.507) rotate(-45)"><circle class="a" cx="7.5" cy="7.5" r="7.5" transform="translate(455 257)"/><line class="a" x2="5.051" transform="translate(450.378 267.2)"/><line class="a" x1="5.051" transform="translate(450.378 261.8)"/><line class="a" y2="5.051" transform="translate(459.8 252.378)"/><line class="a" y1="5.051" transform="translate(465.2 252.378)"/><line class="a" x2="5.051" transform="translate(469.571 267.2)"/><line class="a" x1="5.051" transform="translate(469.571 261.8)"/><line class="a" y1="5.051" transform="translate(465.2 271.571)"/><line class="a" y2="5.051" transform="translate(459.8 271.571)"/><path class="a" d="M476,264.5a1.607,1.607,0,0,0-.8-1.387,1.058,1.058,0,0,1-.471-.749,12.426,12.426,0,0,0-10.1-10.1,1.059,1.059,0,0,1-.749-.471,1.607,1.607,0,0,0-2.775,0,1.06,1.06,0,0,1-.749.471,12.426,12.426,0,0,0-10.1,10.1,1.058,1.058,0,0,1-.471.749,1.607,1.607,0,0,0,0,2.775,1.06,1.06,0,0,1,.471.749,12.426,12.426,0,0,0,10.1,10.1,1.06,1.06,0,0,1,.749.471,1.607,1.607,0,0,0,2.775,0,1.059,1.059,0,0,1,.749-.471,12.426,12.426,0,0,0,10.1-10.1,1.06,1.06,0,0,1,.471-.749A1.607,1.607,0,0,0,476,264.5Z"/></g><path class="b" d="M1538.168,29.489l-3.717-3.717-3.717,3.717,1.568,2.494,2.485.853Z"/><path class="b" d="M1538.168,29.118l-3.717,3.717-3.506-2.988,1.357-3.222,2.485-.853Z" transform="translate(0 -14)"/><path class="b" d="M1538.168,29.118l-3.717,3.717-3.506-2.988,1.357-3.222,2.485-.853Z" transform="translate(1577.86 -1519.253) rotate(90)"/><path class="b" d="M1538.168,29.118l-3.717,3.717-3.506-2.988,1.357-3.222,2.485-.853Z" transform="translate(3083.114 58.607) rotate(180)"/></g></svg>