<svg xmlns="http://www.w3.org/2000/svg" xmlns:xlink="http://www.w3.org/1999/xlink" class="hide">
  <symbol viewBox="0 0 192 192" id="google_ads">
    <rect x="8" y="62.52" transform="matrix(0.5 -0.866 0.866 0.5 -46.2127 103.666)" fill="#FBBC04" width="117.33" height="58.67"></rect>
    <path fill="#4285F4" d="M180.07,127.99L121.4,26.38c-8.1-14.03-26.04-18.84-40.07-10.74c-14.03,8.1-18.84,26.04-10.74,40.07 l58.67,101.61c8.1,14.03,26.04,18.83,40.07,10.74C183.36,159.96,188.16,142.02,180.07,127.99z"></path>
    <circle fill="#34A853" cx="37.34" cy="142.66" r="29.33"></circle>
  </symbol>
  <symbol viewBox="186 38 76 76" id="google_calendar">
    <path fill="#fff" d="M244 56h-40v40h40V56z"/>
    <path fill="#EA4335" d="M244 114l18-18h-18v18z"/>
    <path fill="#FBBC04" d="M262 56h-18v40h18V56z"/>
    <path fill="#34A853" d="M244 96h-40v18h40V96z"/>
    <path fill="#188038" d="M186 96v12c0 3.315 2.685 6 6 6h12V96h-18z"/>
    <path fill="#1967D2" d="M262 56V44c0-3.315-2.685-6-6-6h-12v18h18z"/>
    <path fill="#4285F4" d="M244 38h-52c-3.315 0-6 2.685-6 6v52h18V56h40V38z"/>
    <path fill="#4285F4" d="M212.205 87.03c-1.495-1.01-2.53-2.485-3.095-4.435l3.47-1.43c.315 1.2.865 2.13 1.65 2.79.78.66 1.73.985 2.84.985 1.135 0 2.11-.345 2.925-1.035s1.225-1.57 1.225-2.635c0-1.09-.43-1.98-1.29-2.67-.86-.69-1.94-1.035-3.23-1.035h-2.005V74.13h1.8c1.11 0 2.045-.3 2.805-.9.76-.6 1.14-1.42 1.14-2.465 0-.93-.34-1.67-1.02-2.225-.68-.555-1.54-.835-2.585-.835-1.02 0-1.83.27-2.43.815a4.784 4.784 0 00-1.31 2.005l-3.435-1.43c.455-1.29 1.29-2.43 2.515-3.415 1.225-.985 2.79-1.48 4.69-1.48 1.405 0 2.67.27 3.79.815 1.12.545 2 1.3 2.635 2.26.635.965.95 2.045.95 3.245 0 1.225-.295 2.26-.885 3.11-.59.85-1.315 1.5-2.175 1.955v.205a6.605 6.605 0 012.79 2.175c.725.975 1.09 2.14 1.09 3.5 0 1.36-.345 2.575-1.035 3.64s-1.645 1.905-2.855 2.515c-1.215.61-2.58.92-4.095.92-1.755.005-3.375-.5-4.87-1.51zm21.315-17.22l-3.81 2.755-1.905-2.89 6.835-4.93h2.62V88h-3.74V69.81z"/>
  </symbol>
  <symbol viewBox="0 0 479.4 500" id="google_chat">
    <path fill="#00AC47" d="M108.8 269.7V107.2h-71c-20.9 0-37.8 17-37.8 37.9V481c0 16.9 20.4 25.3 32.3 13.4l78.1-78.1h222.4c20.9 0 37.8-16.9 37.8-37.8v-71H146.7c-20.9 0-37.9-16.9-37.9-37.8z"/>
    <path fill="#5BB974" d="M441.6 0H146.7c-20.9 0-37.8 16.9-37.8 37.8v69.4h223.9c20.9 0 37.8 16.9 37.8 37.8v162.4h71c20.9 0 37.8-16.9 37.8-37.8V37.8c0-20.9-16.9-37.8-37.8-37.8z"/>
    <path fill="#00832D" d="M332.8 107.2h-224v162.4c0 20.9 16.9 37.8 37.8 37.8h223.9V145.1c.1-20.9-16.8-37.9-37.7-37.9z"/>
  </symbol>
  <symbol viewBox="0 38 528 456" id="google_classroom">
    <linearGradient id="a" x1="50.003%" x2="50.003%" y1="1.385%" y2="101.042%">
      <stop offset="0" stop-color="#bf360c" stop-opacity=".2"/>
      <stop offset="1" stop-color="#bf360c" stop-opacity=".02"/>
    </linearGradient>
    <radialGradient id="b" cx="3.407%" cy="2.344%" gradientTransform="matrix(.86364 0 0 1 .005 0)" r="477.746%">
      <stop offset="0" stop-color="#fff" stop-opacity=".1"/>
      <stop offset="1" stop-color="#fff" stop-opacity="0"/>
    </radialGradient>
    <g fill="none">
      <path d="M48 84h432v360H48z" fill="#0f9d58"/>
      <path d="M360 276c14.9 0 27-12.1 27-27s-12.1-27-27-27-27 12.1-27 27 12.1 27 27 27zm0 18c-28.9 0-60 15.3-60 34.3V348h120v-19.7c0-19-31.1-34.3-60-34.3zm-192-18c14.9 0 27-12.1 27-27s-12.1-27-27-27-27 12.1-27 27 12.1 27 27 27zm0 18c-28.9 0-60 15.3-60 34.3V348h120v-19.7c0-19-31.1-34.3-60-34.3z" fill="#57bb8a"/>
      <path d="M264 252c19.9 0 36-16.1 36-36s-16.1-36-36-36-36 16.1-36 36 16.1 36 36 36zm0 24c-40.5 0-84 21.5-84 48v24h168v-24c0-26.5-43.5-48-84-48z" fill="#f7f7f7"/>
      <path d="M312 420h108v24H312z" fill="#f1f1f1"/>
      <path d="M492 36H36C16.1 36 0 52.1 0 72v384c0 19.9 16.1 36 36 36h456c19.9 0 36-16.1 36-36V72c0-19.9-16.1-36-36-36zm-12 408H48V84h432z" fill="#f4b400"/>
      <path d="M492 36H36C16.1 36 0 52.1 0 72v3c0-19.9 16.1-36 36-36h456c19.9 0 36 16.1 36 36v-3c0-19.9-16.1-36-36-36z" fill="#fff" opacity=".2"/>
      <path d="M492 489H36c-19.9 0-36-16.1-36-36v3c0 19.9 16.1 36 36 36h456c19.9 0 36-16.1 36-36v-3c0 19.9-16.1 36-36 36z" fill="#bf360c" opacity=".2"/>
      <path d="M419.8 444h-108l48 48h107.9z" fill="url(#a)"/>
      <path d="M48 81h432v3H48z" fill="#263238" opacity=".2"/>
      <path d="M48 444h432v3H48z" fill="#fff" opacity=".2"/>
      <path d="M492 36H36C16.1 36 0 52.1 0 72v384c0 19.9 16.1 36 36 36h456c19.9 0 36-16.1 36-36V72c0-19.9-16.1-36-36-36z" fill="url(#b)"/>
    </g>
  </symbol>
  <symbol viewBox="0 0 500 500" id="google_contacts">
    <circle fill="#1A73E8" cx="250" cy="250" r="250"></circle>
    <path fill="#185ABC" d="M332.4 375H170.5c-19.6 0-36.9-11.8-36.9-31.2V358c0 19.4 17.3 34.1 36.9 34.1h161.9c19.6 0 36.9-14.7 36.9-34.1v-14.2c0 19.4-17.3 31.2-36.9 31.2zM250 227.3c-29.3-.1-52.4-20.4-54-48.3v11.4c0 28.9 24.2 54 54 54s54-25.1 54-54V179c-2.3 28.1-24.7 48.4-54 48.3z"></path>
    <g fill="#FFF">
      <path d="M250 261.4c-57 0-116.5 27.8-116.5 65.3v17c0 19.4 15.9 34.1 35.5 34.1h164.7c19.6 0 35.5-14.7 35.5-34.1v-17c.1-37.6-62.2-65.3-119.2-65.3z"></path>
      <circle cx="250" cy="176.1" r="54"></circle>
    </g>
  </symbol>
  <symbol viewBox="0 0 277.5 283.1" id="google_currents">
    <path d="M24.5 196l-.3-2.6 24.2-52.5.9.4h.2l.1.3v1.4l-24.2 52.9-.9.1zm74.6-54.5l1 .3 23.8-53.6-.2-1.3-.7.3-24.2 53.6.3.7zm128.3-.3l-39.9 87.7-39.7-87.6-24.8 54.9 27.2 60.1c7.6 16.8 21.5 26.8 37.3 26.8 15.7 0 29.7-10 37.2-26.8l27.6-60.4-24.9-54.7z" fill="#174ea6"></path>
    <path d="M224.9 26.7C217.3 10 203.5 0 187.8 0c-15.6 0-29.5 10-37.1 26.7L74.2 196.6l-24.8-55.3L24.5 196l16.3 36.1c6.7 14.9 19.2 23.8 33.4 23.8s26.7-8.9 33.4-23.8l80.2-177.9 64.5 142.1 25.2-55.2c0-.1-52.6-114.4-52.6-114.4z" fill="#4285f4"></path>
    <path d="M107.6 51.1c-6.7-14.9-19.2-23.8-33.4-23.8s-26.7 8.9-33.4 23.8L0 141l24.5 55L74.2 86.6l24.8 55 24.7-54.8-16.1-35.7z" fill="#174ea6"></path>
  </symbol>
  <symbol viewBox="0 0 1818.2 2500" id="google_docs">
    <path d="M1136.4,0H170.4C79.6,0,0,79.5,0,170.5v2159.1c0,90.9,79.5,170.5,170.5,170.5h1477.3 c90.9,0,170.5-79.5,170.5-170.5V681.8l-397.7-284.1L1136.4,0z" fill="#4285F4"/>
	  <path d="M454.5,1818.2h909.1v-113.6H454.6L454.5,1818.2L454.5,1818.2z M454.5,2045.5h681.8v-113.6H454.5V2045.5z M454.5,1250v113.6h909.1V1250H454.5z M454.5,1590.9h909.1v-113.6H454.6L454.5,1590.9L454.5,1590.9z" fill="#F1F1F1"/>
	  <path d="M1136.4,0v511.4c0,90.9,79.5,170.4,170.4,170.4h511.4L1136.4,0z" fill="#A1C2FA"/>
  </symbol>
  <symbol viewBox="0 0 87.3 78" id="google_drive">
    <path d="M6.6 66.85l3.85 6.65c.8 1.4 1.95 2.5 3.3 3.3L27.5 53H0c0 1.55.4 3.1 1.2 4.5z" fill="#0066da"></path>
    <path d="M43.65 25L29.9 1.2c-1.35.8-2.5 1.9-3.3 3.3l-25.4 44A9.06 9.06 0 000 53h27.5z" fill="#00ac47"></path>
    <path d="M73.55 76.8c1.35-.8 2.5-1.9 3.3-3.3l1.6-2.75L86.1 57.5c.8-1.4 1.2-2.95 1.2-4.5H59.798l5.852 11.5z" fill="#ea4335"></path>
    <path d="M43.65 25L57.4 1.2C56.05.4 54.5 0 52.9 0H34.4c-1.6 0-3.15.45-4.5 1.2z" fill="#00832d"></path>
    <path d="M59.8 53H27.5L13.75 76.8c1.35.8 2.9 1.2 4.5 1.2h50.8c1.6 0 3.15-.45 4.5-1.2z" fill="#2684fc"></path>
    <path d="M73.4 26.5l-12.7-22c-.8-1.4-1.95-2.5-3.3-3.3L43.65 25 59.8 53h27.45c0-1.55-.4-3.1-1.2-4.5z" fill="#ffba00"></path>
  </symbol>
  <symbol viewBox="0 0 1748.6 1752" id="google_earth">
    <path d="M1748.6 876c0 483.8-391.8 875.6-874.7 875.6S0 1359.8 0 876 391.4 0 874.3 0s874.3 392.2 874.3 876z" fill="#f5f5f5"/>
    <path d="M733.8 30.9c-42.5.4-88.1 4.7-135.3 13.7C250.5 160.7 0 488.9 0 876c0 483.8 391.4 876 874.3 876s874.3-392.7 874.3-876.4c0-79.5-11.2-156.4-30.9-229.8-67.9 13.7-145.2 15-205.4-45.5-134.9-135.4-339.4-571.1-778.5-569.4z" fill="#c6e2ff"/>
    <path d="M574 171.8c-112.1.9-240.6 36.9-340.7 108.3C88.5 436.5 0 645.7 0 875.6c0 483.8 391.4 876 874.3 876s874.3-392.2 874.3-876c0-6.9-.4-13.7-.4-20.2-111.3 91.5-305.5 87.2-418.5-28.4-210.1-221.2-325.7-561.5-659.5-645.3-29.6-6.4-61.9-9.9-96.2-9.9z" fill="#98c3ff"/>
    <path d="M374.6 510.4c-201 0-338.1 122.4-372.9 313.6C.9 841.2 0 858.4 0 875.6c0 483.8 391.4 876 874.3 876 417.2 0 766-292.6 853.2-684-127.2 216.5-397.4 276.7-657.8 55.9-311.4-298.6-323.9-599.8-695.1-613.1z" fill="#4f8ef5"/>
    <path d="M269.4 952C156 959.8 70.9 1057.7 75.2 1230.4 210.9 1537.6 517.3 1752 874.3 1752c280.5 0 529.7-132.3 689.5-337.7-156.4 128-474.7 198.5-771.6-38.7C574 1173.3 497.9 946.9 269.4 952z" fill="#2d65dc"/>
  </symbol>
  <symbol viewBox="0 0 150 150.2" id="google_jamboard">
    <path d="M0 .2h150v150H0V.2z" fill="none"></path>
    <ellipse cx="75.1" cy="97.2" rx="41.4" ry="40.6" fill="#f0c719"></ellipse>
    <path fill="#ec7f23" d="M75.7 16h40.8v41.9l-40.8-1.3z"></path>
    <path fill="#f89c2c" d="M75.7 56.6h40.8v40.6H75.7z"></path>
  </symbol>
  <symbol viewBox="0 0 2737.9 3169" id="google_hangouts">
    <path fill="#0F9D58" d="M2737.9 1368.4C2737.9 612.7 2124.1 0 1368.4 0S0 612.7 0 1368.4c0 715.9 652.5 1296.4 1368.4 1296.4V3169c831.5-421.7 1369.5-1100.3 1369.5-1800.6z"></path>
    <linearGradient id="a" gradientUnits="userSpaceOnUse" x1="1385.269" y1="1856.731" x2="2323.13" y2="918.87" gradientTransform="matrix(1 0 0 -1 0 3170)">
      <stop offset="0" stop-color="#263238"></stop>
      <stop offset="1" stop-opacity="0"></stop>
    </linearGradient>
    <path opacity=".2" fill="url(#a)" d="M2052.6 1008.3l-396.1 396.1-396.1-396.1-576.2 576.2L1919 2819.3c415.6-328.3 697-732.4 787.3-1157.3l-653.7-653.7z"></path>
    <path fill="#EEE" d="M1476.5 1008.3v576.2h324.1v324.1c141.3 0 252.1-180.1 252.1-360.1v-540.2h-576.2zm-792.3 0v576.2h324.1v324.1c141.3 0 252.1-180.1 252.1-360.1v-540.2H684.2z"></path>
    <path opacity=".4" fill="#FFF" d="M684.2 1008.3h576.2v18H684.2v-18zm792.3 0h576.2v18h-576.2v-18z"></path>
    <path opacity=".2" fill="#263238" d="M1800.6 1908.6v18c141.3 0 252.1-180.1 252.1-360.1v-18c-.1 180-110.8 360.1-252.1 360.1zm0-324.1h-324.1v18h324.1v-18zm-792.3 324.1l17.1 17.1c133.1-13.7 235-186.5 235-359.2v-18c0 180-110.7 360.1-252.1 360.1zm0-324.1H684.2v18h324.1v-18z"></path>
    <path opacity=".2" fill="#FFF" d="M1368.4 18c755.7 0 1368.4 612.7 1368.4 1368.4h.7c0-5.9.4-12.1.4-18h-1.1C2736.8 612.7 2124.1 0 1368.4 0S0 612.7 0 1368.4c0 2.9.2 5.6.2 8.5C5.4 625.5 615.8 18 1368.4 18z"></path>
    <path opacity=".2" fill="#263238" d="M1368.4 2664.8v-18C655.2 2646.8 5.4 2071 .2 1358.9c0 3.2-.2 6.3-.2 9.5 0 715.9 652.5 1296.4 1368.4 1296.4zm1368.4-1296.4c-9.2 693.8-544.1 1364.5-1368.4 1782.5v18c831.5-421.6 1368.4-1100.2 1368.4-1800.5z"></path>
  </symbol>
  <symbol viewBox="0 0 67.496 92.921" id="google_forms">
    <defs>
      <linearGradient id="b">
        <stop offset="0" stop-opacity=".144"></stop>
        <stop offset="1" stop-opacity="0"></stop>
      </linearGradient>
      <linearGradient id="a">
        <stop offset="0" stop-opacity=".196"></stop>
        <stop offset="1" stop-opacity="0"></stop>
      </linearGradient>
      <linearGradient id="c">
        <stop offset="0" stop-opacity=".244"></stop>
        <stop offset="1" stop-opacity="0"></stop>
      </linearGradient>
      <linearGradient xlink:href="#a" id="e" x1="196.436" y1="142.451" x2="196.837" y2="147.797" gradientUnits="userSpaceOnUse"></linearGradient>
      <linearGradient xlink:href="#b" id="f" x1="172.249" y1="218.846" x2="172.635" y2="200.939" gradientUnits="userSpaceOnUse"></linearGradient>
      <radialGradient xlink:href="#c" id="d" cx="131.764" cy="141.723" fx="131.764" fy="141.723" r="11.96" gradientTransform="matrix(1.03906 -1.35658 1.42248 1.08954 -132.316 165.919)" gradientUnits="userSpaceOnUse"></radialGradient>
    </defs>
    <g stroke-width=".265">
      <path d="M41.861 0L5.571.2S4.118.048 1.951 1.986C.376 3.568.435 5.543.435 5.543L.033 86.595s.535 5.346 4.945 5.747c4.41.4 56.661 0 56.661 0s5.48.133 5.746-5.48c.268-5.612-.033-61.338-.033-61.338z" fill="#8d6ac8" fill-opacity=".988"></path>
      <path d="M41.828.4L5.537.603S4.086.448 1.919 2.386C.343 3.969.402 5.944.402 5.944L0 86.996s.535 5.346 4.944 5.747c4.41.4 56.662 0 56.662 0s5.479.133 5.746-5.48c.267-5.612 0-61.739 0-61.739z" fill="#734abc"></path>
      <path d="M182.271 139.177l23.654 25.257.267-22.851z" fill="url(#d)" transform="translate(-138.84 -116.059)"></path>
      <path d="M206.192 141.583l-23.92-2.406 23.983 25.683z" fill="url(#e)" transform="translate(-138.84 -116.059)"></path>
      <g transform="translate(-64.076 -116.21)" fill="#fff">
        <circle r="3.166" cy="164.567" cx="83.485"></circle>
        <circle cx="83.485" cy="175.15" r="3.166"></circle>
        <circle r="3.166" cy="185.355" cx="83.58"></circle>
        <path d="M92.037 162.44h23.057v4.252H92.037zm-.094 10.489H115v4.252H91.943zm-.095 10.489h23.057v4.252H91.848z"></path>
      </g>
      <path d="M41.961 0v19.377s.268 6.014 6.415 6.147c6.147.134 18.976 0 18.976 0z" fill="#b6a1dc"></path>
      <path d="M180.668 116.46l-36.291.2s-1.451-.153-3.618 1.784c-1.577 1.583-1.518 3.559-1.518 3.559l-.401 81.052s.534 5.345 4.944 5.746c4.41.4 56.661 0 56.661 0s5.48.134 5.747-5.479c.267-5.613 0-61.74 0-61.74z" fill="url(#f)" transform="translate(-138.84 -116.059)"></path>
    </g>
  </symbol>
  <symbol viewBox="52 42 88 66" id="google_gmail">
    <path fill="#4285f4" d="M58 108h14V74L52 59v43c0 3.32 2.69 6 6 6"></path>
    <path fill="#34a853" d="M120 108h14c3.32 0 6-2.69 6-6V59l-20 15"></path>
    <path fill="#fbbc04" d="M120 48v26l20-15v-8c0-7.42-8.47-11.65-14.4-7.2"></path>
    <path fill="#ea4335" d="M72 74V48l24 18 24-18v26L96 92"></path>
    <path fill="#c5221f" d="M52 51v8l20 15V48l-5.6-4.2C60.46 39.35 52 43.58 52 51"></path>
  </symbol>
  <symbol fill="none" viewBox="0 0 87.5 72" id="google_meet">
    <path fill="#00832d" d="M49.5 36l8.53 9.75 11.47 7.33 2-17.02-2-16.64-11.69 6.44z"></path>
    <path fill="#0066da" d="M0 51.5V66c0 3.315 2.685 6 6 6h14.5l3-10.96-3-9.54-9.95-3z"></path>
    <path fill="#e94235" d="M20.5 0L0 20.5l10.55 3 9.95-3 2.95-9.41z"></path>
    <path fill="#2684fc" d="M20.5 20.5H0v31h20.5z"></path>
    <path fill="#00ac47" d="M82.6 8.68L69.5 19.42v33.66l13.16 10.79c1.97 1.54 4.85.135 4.85-2.37V11c0-2.535-2.945-3.925-4.91-2.32zM49.5 36v15.5h-29V72h43c3.315 0 6-2.685 6-6V53.08z"></path>
    <path fill="#ffba00" d="M63.5 0h-43v20.5h29V36l20-16.57V6c0-3.315-2.685-6-6-6z"></path>
  </symbol>
  <symbol viewBox="0 0 6550.8 5359.7" id="google_news">
    <path fill="#0C9D58" d="M5210.8 3635.7c0 91.2-75.2 165.9-167.1 165.9H1507c-91.9 0-167.1-74.7-167.1-165.9V165.9C1339.9 74.7 1415.1 0 1507 0h3536.8c91.9 0 167.1 74.7 167.1 165.9v3469.8z"></path>
    <path opacity=".2" fill="#004D40" d="M5210.8 892L3885.3 721.4 5210.8 1077zM3339.3 180.9L1332 1077.2l2218.5-807.5v-2.2c-39-83.6-134-122.6-211.2-86.6z"></path>
    <path opacity=".2" fill="#FFF" d="M5043.8 0H1507c-91.9 0-167.1 74.7-167.1 165.9v37.2c0-91.2 75.2-165.9 167.1-165.9h3536.8c91.9 0 167.1 74.7 167.1 165.9v-37.2C5210.8 74.7 5135.7 0 5043.8 0z"></path>
    <path fill="#EA4335" d="M2198.2 3529.1c-23.9 89.1 23.8 180 106 202l3275.8 881c82.2 22 169-32.9 192.8-122l771.7-2880c23.9-89.1-23.8-180-106-202l-3275.8-881c-82.2-22-169 32.9-192.8 122l-771.7 2880z"></path>
    <path opacity=".2" fill="#3E2723" d="M5806.4 2638.1l172.3 1046.7-172.3 643.3zm-1905.6-1874l154.4 41.5 95.8 646z"></path>
    <path opacity=".2" fill="#FFF" d="M6438.6 1408.1l-3275.8-881c-82.2-22-169 32.9-192.8 122l-771.7 2880c-1.3 4.8-1.6 9.7-2.5 14.5l765.9-2858.2c23.9-89.1 110.7-144 192.8-122l3275.8 881c77.7 20.8 123.8 103.3 108.5 187.6l5.9-21.9c23.8-89.1-23.9-180-106.1-202z"></path>
    <path fill="#FFC107" d="M4778.1 3174.4c31.5 86.7-8.1 181.4-88 210.5L1233.4 4643c-80 29.1-171.2-18-202.7-104.7L10.9 1736.5c-31.5-86.7 8.1-181.4 88-210.5L3555.6 267.9c80-29.1 171.2 18 202.7 104.7l1019.8 2801.8z"></path>
    <path opacity=".2" fill="#FFF" d="M24 1771.8c-31.5-86.7 8.1-181.4 88-210.5L3568.7 303.1c79.1-28.8 169 17.1 201.5 102l-11.9-32.6c-31.6-86.7-122.8-133.8-202.7-104.7L98.9 1526c-80 29.1-119.6 123.8-88 210.5l1019.8 2801.8c.3.9.9 1.7 1.3 2.7L24 1771.8z"></path>
    <path fill="#4285F4" d="M5806.4 5192.2c0 92.1-75.4 167.5-167.5 167.5h-4727c-92.1 0-167.5-75.4-167.5-167.5V1619.1c0-92.1 75.4-167.5 167.5-167.5h4727c92.1 0 167.5 75.4 167.5 167.5v3573.1z"></path>
    <path fill="#FFF" d="M4903.8 2866H3489.4v-372.2h1414.4c41.1 0 74.4 33.3 74.4 74.4v223.3c0 41.1-33.3 74.5-74.4 74.5zm0 1414.3H3489.4v-372.2h1414.4c41.1 0 74.4 33.3 74.4 74.4v223.3c0 41.2-33.3 74.5-74.4 74.5zm223.3-707.2H3489.4v-372.2h1637.7c41.1 0 74.4 33.3 74.4 74.4v223.3c0 41.2-33.3 74.5-74.4 74.5z"></path>
    <path opacity=".2" fill="#1A237E" d="M5638.9 5322.5h-4727c-92.1 0-167.5-75.4-167.5-167.5v37.2c0 92.1 75.4 167.5 167.5 167.5h4727c92.1 0 167.5-75.4 167.5-167.5V5155c0 92.1-75.4 167.5-167.5 167.5z"></path>
    <path opacity=".2" fill="#FFF" d="M911.9 1488.8h4727c92.1 0 167.5 75.4 167.5 167.5v-37.2c0-92.1-75.4-167.5-167.5-167.5h-4727c-92.1 0-167.5 75.4-167.5 167.5v37.2c0-92.1 75.4-167.5 167.5-167.5z"></path>
    <path fill="#FFF" d="M2223.9 3238.2v335.7h481.7c-39.8 204.5-219.6 352.8-481.7 352.8-292.4 0-529.5-247.3-529.5-539.7s237.1-539.7 529.5-539.7c131.7 0 249.6 45.3 342.7 134v.2l254.9-254.9c-154.8-144.3-356.7-232.8-597.7-232.8-493.3 0-893.3 399.9-893.3 893.3s399.9 893.3 893.3 893.3c515.9 0 855.3-362.7 855.3-873 0-58.5-5.4-114.9-14.1-169.2h-841.1z"></path>
    <g opacity=".2" fill="#1A237E">
      <path d="M2233.2 3573.9v37.2h472.7c3.5-12.2 6.5-24.6 9-37.2h-481.7z"></path>
      <path d="M2233.2 4280.3c-487.1 0-882.9-389.9-892.8-874.7-.1 6.2-.5 12.4-.5 18.6 0 493.4 399.9 893.3 893.3 893.3 515.9 0 855.3-362.7 855.3-873 0-4.1-.5-7.9-.5-12-11.1 497-347.4 847.8-854.8 847.8zm342.7-1299c-93.1-88.6-211.1-134-342.7-134-292.4 0-529.5 247.3-529.5 539.7 0 6.3.7 12.4.9 18.6 9.9-284.2 242.4-521.1 528.6-521.1 131.7 0 249.6 45.3 342.7 134v.2l273.5-273.5c-6.4-6-13.5-11.3-20.1-17.1L2576 2981.5l-.1-.2z"></path>
    </g>
    <path opacity=".2" fill="#1A237E" d="M4978.2 2828.7v-37.2c0 41.1-33.3 74.4-74.4 74.4H3489.4v37.2h1414.4c41.1.1 74.4-33.2 74.4-74.4zm-74.4 1451.6H3489.4v37.2h1414.4c41.1 0 74.4-33.3 74.4-74.4v-37.2c0 41.1-33.3 74.4-74.4 74.4zm223.3-707.2H3489.4v37.2h1637.7c41.1 0 74.4-33.3 74.4-74.4v-37.2c0 41.1-33.3 74.4-74.4 74.4z"></path>
    <radialGradient id="a" cx="1476.404" cy="434.236" r="6370.563" gradientUnits="userSpaceOnUse">
      <stop offset="0" stop-color="#fff" stop-opacity=".1"></stop>
      <stop offset="1" stop-color="#fff" stop-opacity="0"></stop>
    </radialGradient>
    <path fill="url(#a)" d="M6438.6 1408.1l-1227.7-330.2v-912c0-91.2-75.2-165.9-167.1-165.9H1507c-91.9 0-167.1 74.7-167.1 165.9v908.4L98.9 1526c-80 29.1-119.6 123.8-88 210.5l733.5 2015.4v1440.3c0 92.1 75.4 167.5 167.5 167.5h4727c92.1 0 167.5-75.4 167.5-167.5v-826.9l738.3-2755.2c23.8-89.1-23.9-180-106.1-202z"></path>
  </symbol>
  <symbol enable-background="new 0 0 6596.059 6592.51" viewBox="0 0 6596.059 6592.51" id="google_keep">
    <filter height="192" id="b" width="192" x="-24" y="-24">
      <feGaussianBlur in="SourceGraphic" result="blur" stdDeviation="4"></feGaussianBlur>
      <feOffset dx="4" dy="4" in="blur" result="offsetBlurredGraphic"></feOffset>
    </filter>
    <path fill="#F4B400" d="M4686.673 6592.51H520.742C233.493 6591.67.841 6359.143 0 6072.048V520.461C.841 233.367 233.493.84 520.742 0h5554.576c287.249.84 519.901 233.367 520.742 520.461v4163.69l-1128.273 780.692-781.114 1127.667z"></path>
    <linearGradient id="a" gradientUnits="userSpaceOnUse" x1="1975.772" y1="4033.584" x2="4798.552" y2="6856.364" gradientTransform="matrix(1.2639 0 0 1.2632 -389.13 -3094.869)">
      <stop offset="0" stop-color="#bf360c" stop-opacity=".1"></stop>
      <stop offset="1" stop-color="#bf360c" stop-opacity=".02"></stop>
    </linearGradient>
    <path fill="url(#a)" d="M2194.058 1496.728c-610.435 609.131-611.226 1597.517-1.768 2207.623l.9.9 323.728 324.421v1174.941L3905.561 6592.51h781.113l1909.385-1908.358v-993.648L4402.87 1498.495c-609.459-610.106-1598.378-610.897-2208.812-1.767z"></path>
    <g opacity=".2" filter="url(#b)">
      <path fill="#3E2723" d="M4686.673 6592.51V5204.613c-.079-287.364 232.936-520.382 520.455-520.461h1388.931L4686.673 6592.51z"></path>
    </g>
    <path fill="#FADA80" d="M4686.673 6592.51V5204.613c-.079-287.364 232.936-520.382 520.455-520.461h1388.931L4686.673 6592.51z"></path>
    <path fill="#FFF" fill-opacity=".2" d="M5207.128 4684.152c-287.519.079-520.534 233.097-520.454 520.461v43.084c.079-287.364 233.223-520.253 520.741-520.174h1345.249l43.395-43.372H5207.415l-.287.001z"></path>
    <path opacity=".1" fill="#3E2723" enable-background="new" d="M3298.03 1040.923c-862.688-.105-1562.119 698.781-1562.224 1561.005-.068 557.867 297.704 1073.377 781.112 1352.277v1250.408h347.161v346.975h954.693v-346.975h347.161V3900.424c717.367-479.021 910.376-1448.572 431.097-2165.553-289.867-433.629-777.216-693.979-1299-693.948zm520.741 3816.716h-954.693v-346.974h954.693v346.974zm0-1158.46v464.512h-954.693v-427.212c-627.01-239.395-941.129-941.48-701.605-1568.153 239.523-626.672 941.987-940.622 1568.997-701.228s941.129 941.48 701.605 1568.153c-111.638 292.082-331.671 529.889-614.304 663.928z"></path>
    <path fill="#F1F1F1" d="M3298.03 1040.923c-862.688-.105-1562.119 698.781-1562.224 1561.005-.068 557.867 297.704 1073.377 781.112 1352.277v1250.408h347.161v346.975h954.693v-346.975h347.161V3900.424c717.367-479.021 910.376-1448.572 431.097-2165.553-289.867-433.629-777.216-693.979-1299-693.948zm520.741 3816.716h-954.693v-346.974h954.693v346.974zm0-1158.46v464.512h-954.693v-427.212c-627.01-239.395-941.129-941.48-701.605-1568.153 239.523-626.672 941.987-940.622 1568.997-701.228s941.129 941.48 701.605 1568.153c-111.638 292.082-331.671 529.889-614.304 663.928z"></path>
    <path fill="#FFF" fill-opacity=".4" d="M2864.078 4901.011h954.693v-43.372h-954.693v43.372zm0-693.949h954.693v-43.372h-954.693v43.372zm0-470.583c-463.972-177.963-772.916-620.179-780.245-1116.823 0 8.674-.868 17.349-.868 26.457.711 503.105 311.166 953.885 781.112 1134.172v-43.806zm954.693-37.3v43.372c423.652-201.276 693.797-628.044 694.322-1096.872 0-8.674-.434-16.915-.868-25.589-6.843 462.284-275.667 880.604-693.454 1079.089zM3298.03 1040.923c-862.764.069-1562.156 699.084-1562.224 1561.384 0 6.072.434 12.144.434 18.65 13.526-862.087 723.726-1549.988 1586.277-1536.47 843.655 13.222 1524.309 693.699 1537.304 1536.903 0-6.506.434-12.578.434-19.084-.07-862.299-699.461-1561.314-1562.225-1561.383z"></path>
    <path fill="#BF360C" fill-opacity=".1" d="M2516.917 3954.205c-477.437-275.544-774.145-782.265-780.678-1333.248 0 8.241-.434 16.481-.434 24.722-.21 557.806 297.619 1073.27 781.112 1351.898v-43.372zm347.161 599.832h954.693v-43.372h-954.693v43.372zm433.952-3122.768c660.686.729 1199.871 528.645 1214.196 1188.821 0-6.072.868-11.71.868-17.783 0-670.7-544.002-1214.41-1215.063-1214.41s-1215.064 543.71-1215.064 1214.41c0 5.638.434 11.277.868 16.915 14.7-659.874 553.802-1187.324 1214.195-1187.953zm520.741 3816.716h347.161v-43.372h-347.161v43.372zM4859.82 2621.39c-5.779 514.709-265.458 993.371-693.888 1279.034v43.372c434.085-289.424 694.654-776.588 694.322-1298.117 0-8.241-.434-16.048-.434-24.289zM2864.078 5204.613h-347.161v43.372h347.161v-43.372zm0 390.346h954.693v-43.372h-954.693v43.372z"></path>
    <path fill="#FFF" fill-opacity=".2" d="M6075.317 0H520.742C233.493.84.841 233.367 0 520.461v43.372C.841 276.739 233.493 44.212 520.742 43.372h5554.576c287.249.84 519.901 233.367 520.742 520.461v-43.372C6595.219 233.367 6362.566.84 6075.317 0z"></path>
    <path fill="#BF360C" fill-opacity=".1" d="M520.742 6549.138C233.493 6548.298.841 6315.771 0 6028.677v43.372c.841 287.095 233.493 519.622 520.742 520.461h4165.932L6596.06 4684.152h-43.395L4686.673 6549.138H520.742z"></path>
    <radialGradient id="c" cx="465.316" cy="2618.032" r="6080.553" gradientTransform="matrix(1.2639 0 0 1.2632 -389.13 -3094.869)" gradientUnits="userSpaceOnUse">
      <stop offset="0" stop-color="#fff" stop-opacity=".1"></stop>
      <stop offset="1" stop-color="#fff" stop-opacity="0"></stop>
    </radialGradient>
    <path fill="url(#c)" d="M4686.673 6592.51H520.742C233.493 6591.67.841 6359.143 0 6072.048V520.461C.841 233.367 233.493.84 520.742 0h5554.576c287.249.84 519.901 233.367 520.742 520.461v4163.69L4686.673 6592.51z"></path>
  </symbol>
  <symbol viewBox="0 0 350 350" id="google_photos">
    <path d="M87.5 79.5c48.3 0 87.5 39.2 87.5 87.5v8H8c-4.4 0-8-3.6-8-8 0-48.3 39.2-87.5 87.5-87.5z" fill="#fbbb05"></path>
    <path d="M270.5 87.5c0 48.3-39.2 87.5-87.5 87.5h-8V8c0-4.4 3.6-8 8-8 48.3 0 87.5 39.2 87.5 87.5z" fill="#e94335"></path>
    <path d="M262.5 270.5c-48.3 0-87.5-39.2-87.5-87.5v-8h167c4.4 0 8 3.6 8 8 0 48.3-39.2 87.5-87.5 87.5z" fill="#4285f4"></path>
    <path d="M79.5 262.5c0-48.3 39.2-87.5 87.5-87.5h8v167c0 4.4-3.6 8-8 8-48.3 0-87.5-39.2-87.5-87.5z" fill="#0f9d58"></path>
  </symbol>
  <symbol viewBox="0 0 92.3 132.3" id="google_maps">
    <path fill="#1a73e8" d="M60.2 2.2C55.8.8 51 0 46.1 0 32 0 19.3 6.4 10.8 16.5l21.8 18.3L60.2 2.2z"></path>
    <path fill="#ea4335" d="M10.8 16.5C4.1 24.5 0 34.9 0 46.1c0 8.7 1.7 15.7 4.6 22l28-33.3-21.8-18.3z"></path>
    <path fill="#4285f4" d="M46.2 28.5c9.8 0 17.7 7.9 17.7 17.7 0 4.3-1.6 8.3-4.2 11.4 0 0 13.9-16.6 27.5-32.7-5.6-10.8-15.3-19-27-22.7L32.6 34.8c3.3-3.8 8.1-6.3 13.6-6.3"></path>
    <path fill="#fbbc04" d="M46.2 63.8c-9.8 0-17.7-7.9-17.7-17.7 0-4.3 1.5-8.3 4.1-11.3l-28 33.3c4.8 10.6 12.8 19.2 21 29.9l34.1-40.5c-3.3 3.9-8.1 6.3-13.5 6.3"></path>
    <path fill="#34a853" d="M59.1 109.2c15.4-24.1 33.3-35 33.3-63 0-7.7-1.9-14.9-5.2-21.3L25.6 98c2.6 3.4 5.3 7.3 7.9 11.3 9.4 14.5 6.8 23.1 12.8 23.1s3.4-8.7 12.8-23.2"></path>
  </symbol>
  <symbol viewBox="0 0 70 94" id="google_sites">
    <path d="M61 91H9a6 6 0 01-6-6V9a6 6 0 016-6h36l22 22v60a6 6 0 01-6 6z" fill="#4953b2"></path>
    <path d="M45 3l22 22H45z" fill="#363f85"></path>
    <path d="M17 46h26v18H17zm31 0v18h5V46zm-31-9v5h36v-5z" fill="#fdffff"></path>
  </symbol>
  <symbol viewBox="0 0 512 512" id="google_podcast">
    <g fill="none">
      <path d="M64 238.545v34.91c0 17.673-14.327 32-32 32s-32-14.327-32-32v-34.91c0-17.673 14.327-32 32-32s32 14.327 32 32z" fill="#0066d9"></path>
      <path d="M448.013 239.455a32.6 32.6 0 01-.013-.91c0-17.673 14.327-32 32-32s32 14.327 32 32c0 .304-.004.608-.013.91H512v34.909h-.013c-.48 17.252-14.618 31.09-31.987 31.09s-31.506-13.838-31.987-31.09H448v-34.91h.013z" fill="#4285f4"></path>
      <path d="M174.545 343.273v34.909c0 17.673-14.326 32-32 32s-32-14.327-32-32v-34.91c0-17.672 14.327-32 32-32s32 14.328 32 32zm0-209.455V248h-.008c-.386 17.337-14.562 31.273-31.992 31.273S110.94 265.337 110.554 248h-.009V133.818c0-17.673 14.327-32 32-32s32 14.327 32 32z" fill="#ea4335"></path>
      <path d="M337.455 168.727c0 17.673 14.326 32 32 32s32-14.327 32-32v-34.909c0-17.673-14.327-32-32-32s-32 14.327-32 32z" fill="#34a853"></path>
      <path d="M224 66.91c0 17.672 14.327 32 32 32s32-14.328 32-32V32c0-17.673-14.327-32-32-32s-32 14.327-32 32zm0 378.18c0-17.672 14.327-32 32-32s32 14.328 32 32V480c0 17.673-14.327 32-32 32s-32-14.327-32-32z" fill="#fab908"></path>
      <path d="M337.455 264.727c0-17.673 14.326-32 32-32s32 14.327 32 32v113.455c0 17.673-14.327 32-32 32s-32-14.327-32-32z" fill="#34a853"></path>
      <path d="M288 162.91v186.18c0 17.674-14.327 32-32 32s-32-14.326-32-32V162.91c0-17.674 14.327-32 32-32s32 14.326 32 32z" fill="#fab908"></path>
    </g>
  </symbol>
  <symbol viewBox="0 0 512 512" id="google_vault">
    <path d="M512 256c0 57.187-18.756 110.007-50.448 152.618a257.694 257.694 0 01-55.129 54.554C364.189 493.881 312.215 512 256 512s-108.189-18.119-150.424-48.828a257.587 257.587 0 01-51.524-49.821 253.765 253.765 0 01-15.778-22.643 254.27 254.27 0 01-24.398-51.357C4.88 313.219 0 285.184 0 256s4.88-57.219 13.876-83.351a254.603 254.603 0 0120.302-44.523 255.208 255.208 0 0119.874-29.477 256.876 256.876 0 0142.569-42.987C140.351 20.814 195.741 0 256 0c60.27 0 115.66 20.825 159.389 55.662a257.007 257.007 0 0146.164 47.72C493.244 145.993 512 198.813 512 256z" fill="#f0efeb"></path>
    <path d="M461.552 83.717v324.901a257.694 257.694 0 01-55.129 54.554H105.576a257.587 257.587 0 01-51.524-49.821v-22.643H38.275a254.27 254.27 0 01-24.398-51.357v-26.467a9.142 9.142 0 019.153-9.143h31.023v-88.649H23.03a9.141 9.141 0 01-9.153-9.143v-68.681a9.142 9.142 0 019.153-9.143h31.023V83.717c0-15.496 12.549-28.056 28.035-28.056h351.42c15.485.001 28.044 12.56 28.044 28.056z" fill="#4a8af8"></path>
    <path d="M461.552 207.235v201.383a257.694 257.694 0 01-55.129 54.554H205.615l-75.786-75.786 86.309-86.956-14.211-40.145 40.145-53.52 58.734 9.665 84.961-84.982z" fill="#3c75e5"></path>
    <path d="M434.909 221.784v75.267c0 4.85-1.962 9.244-5.141 12.422a17.485 17.485 0 01-12.41 5.141c-9.701 0-17.563-7.861-17.563-17.563v-75.267c0-9.701 7.861-17.563 17.563-17.563 9.69 0 17.551 7.862 17.551 17.563zm-49.141-90.332c6.746 6.746 6.746 17.696 0 24.442l-61.863 61.863c7.616 12.054 12.042 26.338 12.042 41.659s-4.427 29.605-12.042 41.659l61.863 61.863c6.746 6.746 6.746 17.696 0 24.442-6.757 6.757-17.696 6.757-24.442 0l-61.863-61.863a77.683 77.683 0 01-41.659 12.054c-15.332 0-29.605-4.427-41.669-12.054l-61.863 61.863c-6.746 6.757-17.685 6.757-24.442 0-6.746-6.746-6.746-17.696 0-24.442l61.863-61.863c-7.616-12.054-12.042-26.338-12.042-41.659s4.427-29.605 12.042-41.659l-61.863-61.863c-6.746-6.746-6.746-17.696 0-24.442 6.757-6.757 17.696-6.757 24.442 0l61.863 61.863c12.065-7.627 26.338-12.054 41.669-12.054a77.683 77.683 0 0141.659 12.054l61.863-61.863c6.747-6.757 17.685-6.757 24.442 0zm-95.36 127.965c0-18.008-14.596-32.615-32.604-32.615-18.019 0-32.615 14.608-32.615 32.615s14.596 32.615 32.615 32.615c18.008 0 32.604-14.607 32.604-32.615z" fill="#efefef"></path>
  </symbol>
  <symbol viewBox="0 -77 512.002 512" id="google_youtube">
    <path d="M501.453 56.094c-5.902-21.934-23.195-39.223-45.125-45.13C416.262 0 255.996 0 255.996 0S95.734 0 55.668 10.547C34.16 16.449 16.445 34.164 10.543 56.094 0 96.156 0 179.242 0 179.242s0 83.504 10.543 123.149c5.906 21.93 23.195 39.222 45.129 45.129C96.156 358.484 256 358.484 256 358.484s160.262 0 200.328-10.546c21.934-5.903 39.223-23.196 45.129-45.125C512 262.745 512 179.663 512 179.663s.422-83.508-10.547-123.57zm0 0" fill="red"></path>
    <path d="M204.969 256l133.27-76.758-133.27-76.758zm0 0" fill="#fff"></path>
  </symbol>
  <symbol viewBox="0 0 64 88" id="google_sheets">
    <path d="M58,88H6c-3.3,0-6-2.7-6-6V6c0-3.3,2.7-6,6-6h36l22,22v60C64,85.3,61.3,88,58,88z" fill="#0DC54C"/>
    <path d="M42,0l22,22H42V0z" fill="#08962D"/>
    <path d="M12,34.5v28h40v-28H12z M17,39.5h12.5V46H17V39.5z M17,51h12.5v6.5H17V51z M47,57.5H34.5V51H47V57.5z M47,46 H34.5v-6.5H47V46z" fill="#FDFFFF"/>
  </symbol>
  <symbol viewBox="0 0 242424 333334" shape-rendering="geometricPrecision" text-rendering="geometricPrecision" image-rendering="optimizeQuality" fill-rule="evenodd" clip-rule="evenodd" id="google_slides">
    <defs>
      <linearGradient id="c" gradientUnits="userSpaceOnUse" x1="200291" y1="94137" x2="200291" y2="173145">
        <stop offset="0" stop-color="#bf360c"/>
        <stop offset="1" stop-color="#bf360c"/>
      </linearGradient>
      <mask id="b">
        <linearGradient id="a" gradientUnits="userSpaceOnUse" x1="200291" y1="91174.4" x2="200291" y2="176107">
          <stop offset="0" stop-opacity=".02" stop-color="#fff"/>
          <stop offset="1" stop-opacity=".2" stop-color="#fff"/>
        </linearGradient>
        <path fill="url(#a)" d="M158007 84111h84568v99059h-84568z"/>
      </mask>
    </defs>
    <g fill-rule="nonzero">
      <path d="M151516 0H22726C10228 0 0 10228 0 22726v287880c0 12494 10228 22728 22726 22728h196971c12494 0 22728-10234 22728-22728V90909l-53037-37880L151516 1z" fill="#f4b300"/>
      <path d="M170452 151515H71970c-6252 0-11363 5113-11363 11363v98483c0 6251 5112 11363 11363 11363h98482c6252 0 11363-5112 11363-11363v-98483c0-6250-5111-11363-11363-11363zm-3792 87118H75756v-53027h90904v53027z" fill="#f0f0f0"/>
      <path mask="url(#b)" fill="url(#c)" d="M158158 84261l84266 84242V90909z"/>
      <path d="M151516 0v68181c0 12557 10167 22728 22726 22728h68182L151515 0z" fill="#f9da80"/>
      <path fill="#fff" fill-opacity=".102" d="M151516 0v1893l89008 89016h1900z"/>
      <path d="M22726 0C10228 0 0 10228 0 22726v1893C0 12121 10228 1893 22726 1893h128790V0H22726z" fill="#fff" fill-opacity=".2"/>
      <path d="M219697 331433H22726C10228 331433 0 321209 0 308705v1900c0 12494 10228 22728 22726 22728h196971c12494 0 22728-10234 22728-22728v-1900c0 12504-10233 22728-22728 22728z" fill="#bf360c" fill-opacity=".2"/>
      <path d="M174243 90909c-12559 0-22726-10171-22726-22728v1893c0 12557 10167 22728 22726 22728h68182v-1893h-68182z" fill="#bf360c" fill-opacity=".102"/>
    </g>
  </symbol>
  <symbol viewBox="0 0 998.1 998.3" id="google_translate">
    <path fill="#DBDBDB" d="M931.7 998.3c36.5 0 66.4-29.4 66.4-65.4V265.8c0-36-29.9-65.4-66.4-65.4H283.6l260.1 797.9h388z"/>
    <path fill="#DCDCDC" d="M931.7 230.4c9.7 0 18.9 3.8 25.8 10.6 6.8 6.7 10.6 15.5 10.6 24.8v667.1c0 9.3-3.7 18.1-10.6 24.8-6.9 6.8-16.1 10.6-25.8 10.6H565.5L324.9 230.4h606.8m0-30H283.6l260.1 797.9h388c36.5 0 66.4-29.4 66.4-65.4V265.8c0-36-29.9-65.4-66.4-65.4z"/>
    <path fill="#4352B8" d="M482.3 809.8l61.4 188.5 170.7-188.5z"/>
    <path fill="#607988" d="M936.1 476.1V437H747.6v-63.2h-61.2V437H566.1v39.1h239.4c-12.8 45.1-41.1 87.7-68.7 120.8-48.9-57.9-49.1-76.7-49.1-76.7h-50.8s2.1 28.2 70.7 108.6c-22.3 22.8-39.2 36.3-39.2 36.3l15.6 48.8s23.6-20.3 53.1-51.6c29.6 32.1 67.8 70.7 117.2 116.7l32.1-32.1c-52.9-48-91.7-86.1-120.2-116.7 38.2-45.2 77-102.1 85.2-154.2H936v.1z"/>
    <path fill="#4285F4" d="M66.4 0C29.9 0 0 29.9 0 66.5v677c0 36.5 29.9 66.4 66.4 66.4h648.1L454.4 0h-388z"/>
    <linearGradient id="a" gradientUnits="userSpaceOnUse" x1="534.3" y1="433.2" x2="998.1" y2="433.2">
      <stop offset="0" stop-color="#fff" stop-opacity=".2"/>
      <stop offset="1" stop-color="#fff" stop-opacity=".02"/>
    </linearGradient>
    <path fill="url(#a)" d="M534.3 200.4h397.4c36.5 0 66.4 29.4 66.4 65.4V666L534.3 200.4z"/>
    <path fill="#EEE" d="M371.4 430.6c-2.5 30.3-28.4 75.2-91.1 75.2-54.3 0-98.3-44.9-98.3-100.2s44-100.2 98.3-100.2c30.9 0 51.5 13.4 63.3 24.3l41.2-39.6c-27.1-25-62.4-40.6-104.5-40.6-86.1 0-156 69.9-156 156s69.9 156 156 156c90.2 0 149.8-63.3 149.8-152.6 0-12.8-1.6-22.2-3.7-31.8h-146v53.4l91 .1z"/>
    <radialGradient id="b" cx="65.208" cy="19.366" r="1398.271" gradientUnits="userSpaceOnUse">
      <stop offset="0" stop-color="#fff" stop-opacity=".1"/>
      <stop offset="1" stop-color="#fff" stop-opacity="0"/>
    </radialGradient>
    <path fill="url(#b)" d="M931.7 200.4H518.8L454.4 0h-388C29.9 0 0 29.9 0 66.5v677c0 36.5 29.9 66.4 66.4 66.4h415.9l61.4 188.4h388c36.5 0 66.4-29.4 66.4-65.4V265.8c0-36-29.9-65.4-66.4-65.4z"/>
  </symbol>
  <symbol viewBox="0 0 512 512" style="enable-background:new 0 0 512 512;" id="google_search">
    <path style="fill:#FBBB00;" d="M113.47,309.408L95.648,375.94l-65.139,1.378C11.042,341.211,0,299.9,0,256
	c0-42.451,10.324-82.483,28.624-117.732h0.014l57.992,10.632l25.404,57.644c-5.317,15.501-8.215,32.141-8.215,49.456
	C103.821,274.792,107.225,292.797,113.47,309.408z"/>
    <path style="fill:#518EF8;" d="M507.527,208.176C510.467,223.662,512,239.655,512,256c0,18.328-1.927,36.206-5.598,53.451
	c-12.462,58.683-45.025,109.925-90.134,146.187l-0.014-0.014l-73.044-3.727l-10.338-64.535
	c29.932-17.554,53.324-45.025,65.646-77.911h-136.89V208.176h138.887L507.527,208.176L507.527,208.176z"/>
    <path style="fill:#28B446;" d="M416.253,455.624l0.014,0.014C372.396,490.901,316.666,512,256,512
	c-97.491,0-182.252-54.491-225.491-134.681l82.961-67.91c21.619,57.698,77.278,98.771,142.53,98.771
	c28.047,0,54.323-7.582,76.87-20.818L416.253,455.624z"/>
    <path style="fill:#F14336;" d="M419.404,58.936l-82.933,67.896c-23.335-14.586-50.919-23.012-80.471-23.012
	c-66.729,0-123.429,42.957-143.965,102.724l-83.397-68.276h-0.014C71.23,56.123,157.06,0,256,0
	C318.115,0,375.068,22.126,419.404,58.936z"/>
  </symbol>
  <symbol id="google_smartsheet" viewBox="0 0 46 56">
    <path d="M9.4 22.6s2.4-3.3 5.5-3.4c4.9-.1 8.8 8.6 9.4 9.9 5.4-12 14.3-22.2 21.5-29H1.5v49.7c0 2.7-.4 4.7-.6 5.5 2-.3 9.4-1.6 17-4.3 13.5-4.8 18.7-10 18.8-10l.3-.3.2.4s1.7 3.7 3.4 5.7c1.9 2.2 2.9 2.4 3.5 2.3.8-.2 1.3-1.5 1.5-3.5.2-2 .4-6.5.4-12V4C32.9 20 23.3 44 23.3 44S17 22.5 9.4 22.6z" fill="#0E2947"/>
  </symbol>
</svg>