<svg xmlns="http://www.w3.org/2000/svg" viewBox="0 0 551.089 537.771">
  <g data-name="Raggruppa 627">
    <g data-name="Raggruppa 621">
      <path data-name="Tracciato 2025" d="M531.46 161.253c-14.541-23.752-25.446-29.96-30.923-32.516a54.513 54.513 0 0 0-12.082-4.04c-.078 0-.117-.039-.194-.039-5.322.039-10.606.117-15.928.194a41.763 41.763 0 0 0-15.811 7.925c-11.787 9.526-14.681 22.606-15.423 26.728q7.709-.082 15.423-.155 7.383 43.157 14.763 86.322-17.371.047-34.742.089-10.233 82.7-20.462 165.406h105.9q-4.5-88.924-9.013-177.868c5.6.921 23.935 3.325 33.138-7.595a20.988 20.988 0 0 0 2.525-3.846c9.044-17.783-9.195-47.583-17.171-60.605Zm-18.531 48.561c-.078-.971-.155-1.865-.194-2.758-.311-4-.544-7.109-.583-7.809-.117-1.748-1.9-26.262-2.02-28.01a111.568 111.568 0 0 1 12.16 25.329c1.437 4.351 2.758 8.352 3.613 12.043-4.235.466-8.547.894-12.975 1.205Z" fill="#afe1e1"/>
      <path data-name="Tracciato 2026" d="m434.611 517.844-.008 18.729a1.2 1.2 0 0 1-1.228 1.2h-33.5a1.165 1.165 0 0 1-1.154-.94 1.149 1.149 0 0 1 .587-1.348c3.613-1.748 6.837-3.1 9.557-4.266 1.787-.7 3.372-1.29 4.693-1.834 3.768-1.4 6.332-2.214 7.692-4.74.738-1.437.7-2.719.505-6.76 4.27-.002 8.543-.002 12.856-.041Z" fill="#f9978a"/>
      <path data-name="Tracciato 2027" d="m434.595 531.224.008 5.349a1.245 1.245 0 0 1-1.228 1.2h-33.5a1.177 1.177 0 0 1-1.154-.94 1.153 1.153 0 0 1 .587-1.348 203.498 203.498 0 0 1 9.557-4.266Z" fill="#26376e"/>
      <path data-name="Tracciato 2028" d="m508.423 517.922-.008 18.651a1.2 1.2 0 0 1-1.228 1.2h-33.5a1.165 1.165 0 0 1-1.154-.94 1.149 1.149 0 0 1 .587-1.348c3.613-1.748 6.837-3.1 9.557-4.266 1.787-.7 3.372-1.29 4.693-1.834 3.768-1.4 6.332-2.214 7.692-4.74.738-1.437.7-2.719.505-6.76 4.27-.005 8.582-.005 12.856.037Z" fill="#f9978a"/>
      <path data-name="Tracciato 2029" d="m508.407 531.224.008 5.349a1.245 1.245 0 0 1-1.228 1.2h-33.5a1.177 1.177 0 0 1-1.154-.94 1.153 1.153 0 0 1 .587-1.348 203.498 203.498 0 0 1 9.557-4.266Z" fill="#26376e"/>
      <path data-name="Tracciato 2030" d="m515.221 411.166-1.4 106.756q-12.3-.041-24.591-.078-3.654-53.343-7.3-106.678Z" fill="#26376e"/>
      <path data-name="Tracciato 2031" d="M460.056 411.166q-9.44 53.32-18.88 106.678-12.08.017-24.164.039l8.081-106.717Z" fill="#26376e"/>
      <path data-name="Tracciato 2032" d="M513.201 236.93a112.639 112.639 0 0 1-42.733-6.876c.35-2.758.738-5.478 1.088-8.2 1.36.155 2.953.35 4.7.544-.194 2.1-.388 4.157-.583 6.216a181.34 181.34 0 0 0 35.974 4.662l1.321.019.233 3.635Z" fill="#88c8c7"/>
      <path data-name="Tracciato 2033" d="M483.249 189.768a1.982 1.982 0 0 1-.66 1.36l-17.909 15.928-.622-3.691 15.85-15.151a2.016 2.016 0 0 1 2.836.155 1.9 1.9 0 0 1 .505 1.399Z" fill="#1c6a93"/>
      <path data-name="Tracciato 2034" d="M481.113 212.338v13.869h-13.17l-2.37-13.869Z" fill="#f9978a"/>
      <g data-name="Raggruppa 619">
        <path data-name="Tracciato 2035" d="m471.284 245.671-40.131.388-23.892.233-7.959-46.424-3.851-22.532-2.991-17.365 19.191-.155 23.231-.272 6.216-.039 5.439-.039 9.984-.117 3.341 19.463 4.2 24.552.622 3.691.893 5.283 2.37 13.869Z" fill="#417bff"/>
        <path data-name="Tracciato 2036" d="m411.273 157.519 1.352 7.863 23.212-.214-1.348-7.9-8.527.093a3.928 3.928 0 0 0 .132-.521 3.843 3.843 0 0 0-7.676-.388 3.791 3.791 0 0 0 .148.987Zm13.24-.14-4.534.047a2.383 2.383 0 0 1-.136-.9 2.422 2.422 0 1 1 4.67.855Z" fill="#26376e"/>
        <g data-name="Raggruppa 618" fill="#fff">
          <path data-name="Tracciato 2037" d="M447.959 202.548a45.607 45.607 0 0 0-4.934-2.618c4.5-5.676 7.051-11.014 5.008-13.228-2.218-2.393-8.531.3-15.12 5.023-4.106-6.981-8.772-12-11.791-10.726-1.872.812-2.537 3.8-1.907 8.644.155 1.2.4 2.479.7 3.811a41.575 41.575 0 0 0-3.865-.221h-.2c-4.767 0-7.579 1.022-8.147 2.956-.571 1.966 1.309 4.378 5.447 6.985a46.149 46.149 0 0 0 4.926 2.615c-4.5 5.676-7.047 11.014-5 13.228a3.2 3.2 0 0 0 2.459.905 15.191 15.191 0 0 0 6.328-1.981 48.244 48.244 0 0 0 6.328-3.924 49.085 49.085 0 0 0 4.2 6.157c2.56 3.131 4.8 4.747 6.565 4.747a2.616 2.616 0 0 0 1.029-.2c1.876-.812 2.537-3.8 1.911-8.648-.155-1.2-.4-2.494-.7-3.834 1.441.144 2.828.229 4.1.229 4.359 0 7.513-.878 8.115-2.941.562-1.962-1.318-4.376-5.452-6.979Zm-2.4-15.784a2.312 2.312 0 0 1 1.756.594c1.426 1.546-.482 6.274-5.19 12.152a71.144 71.144 0 0 0-6.394-2.486 75.419 75.419 0 0 0-2.339-4.471c5.247-3.788 9.684-5.788 12.17-5.788Zm-16.74 22.023c-.936-.272-1.826-.579-2.727-.878-.412-.862-.827-1.713-1.212-2.607a81.4 81.4 0 0 1-1.585-3.978 78.379 78.379 0 0 1 3.061-3 86.85 86.85 0 0 1 2.576-2.269c1.107.272 2.218.548 3.345.874.936.276 1.83.583 2.735.882.4.855.812 1.69 1.2 2.6a79.828 79.828 0 0 1 1.585 3.978 78.612 78.612 0 0 1-3.065 3 79.989 79.989 0 0 1-2.583 2.257 65.288 65.288 0 0 1-3.327-.859Zm2.444 1.639a72.823 72.823 0 0 1-2.774 2.156 76.4 76.4 0 0 1-1.841-3.473c.633.2 1.247.42 1.9.61.897.265 1.809.479 2.718.708Zm-7.276-4.74c.268.625.563 1.208.843 1.814a70.172 70.172 0 0 1-5.245-2.078c.9-1.08 1.884-2.195 2.968-3.333.45 1.193.916 2.39 1.437 3.598Zm-1.042-5.387a63.034 63.034 0 0 1-1.729-5.7c2.09.264 4.277.629 6.573 1.154-.7.606-1.4 1.224-2.086 1.853a75.576 75.576 0 0 0-2.758 2.693Zm6.9-5.008a70.816 70.816 0 0 1 2.766-2.179 72.554 72.554 0 0 1 1.845 3.5c-.637-.2-1.251-.423-1.9-.614-.911-.264-1.811-.477-2.711-.707Zm5.555 12.816a71.611 71.611 0 0 0 2.762-2.692 65.36 65.36 0 0 1 1.733 5.707 64.978 64.978 0 0 1-6.6-1.169c.702-.61 1.405-1.201 2.104-1.846Zm1.713-8.081c-.256-.6-.528-1.2-.8-1.795a66.753 66.753 0 0 1 5.2 2.063q-1.346 1.62-2.964 3.333a85.281 85.281 0 0 0-1.436-3.6Zm-16.934-10.509c-.544-4.18-.047-7.032 1.332-7.626a1.58 1.58 0 0 1 .645-.128c2.234 0 6.1 3.838 9.984 10.516a76.522 76.522 0 0 0-3.446 2.708 67.911 67.911 0 0 0-7.746-1.4 41.109 41.109 0 0 1-.769-4.069Zm-6.519 12.832c-3.57-2.249-5.447-4.452-5.027-5.889.416-1.418 3.108-2.257 7.23-2.257a42.176 42.176 0 0 1 4.312.264 65.447 65.447 0 0 0 2 6.62 73.217 73.217 0 0 0-3.473 3.924 46.5 46.5 0 0 1-5.042-2.661Zm7.758 14.728c-3.761 1.9-6.624 2.378-7.634 1.278-1.426-1.542.478-6.266 5.186-12.148a70.836 70.836 0 0 0 6.418 2.494 75.355 75.355 0 0 0 2.319 4.468 47.619 47.619 0 0 1-6.289 3.909Zm19.506-.882c.544 4.18.043 7.035-1.336 7.626-1.36.6-3.788-1-6.457-4.266a47.89 47.89 0 0 1-4.161-6.119q1.707-1.265 3.434-2.712a68.847 68.847 0 0 0 7.743 1.375c.334 1.436.61 2.819.777 4.097Zm0-4.942a65.548 65.548 0 0 0-2-6.628 70.908 70.908 0 0 0 3.473-3.92 45.829 45.829 0 0 1 5.048 2.66c3.566 2.249 5.447 4.448 5.027 5.886-.546 1.875-4.932 2.702-11.544 2.003Z"/>
          <path data-name="Tracciato 2038" d="M430.663 199.946a2.916 2.916 0 1 0 2.8 3.03 2.911 2.911 0 0 0-2.8-3.03Z"/>
        </g>
      </g>
      <path data-name="Tracciato 2039" d="M404.779 217.468c2.615-1.364 2.541-6.06 2.525-7.105-.117-7.661-7.1-15.613-11.666-14.5-3.3.8-5.384 6.344-4.771 10.746 1.049 7.498 10.105 12.835 13.912 10.859Z" fill="#f9978a"/>
      <path data-name="Tracciato 2040" d="M488.455 124.697a120.12 120.12 0 0 1-6.915 23.62c-.583 1.476-9.285 22.765-12.626 21.872-1.981-.544-2.719-8.9 3.419-45.336 5.322-.078 10.606-.155 15.928-.194.077-.001.116.038.194.038Z" fill="#fff"/>
      <g data-name="Raggruppa 620" fill="#fff">
        <path data-name="Tracciato 2041" d="M478.826 228.686a1.629 1.629 0 1 0-.381-2.277 1.627 1.627 0 0 0 .381 2.277Z"/>
        <path data-name="Tracciato 2042" d="M486.442 229.157a1.632 1.632 0 1 0-.381-2.277 1.638 1.638 0 0 0 .381 2.277Z"/>
      </g>
      <path data-name="Tracciato 2043" d="M501.209 95.51c-.319 3.458 3.03 4.436 2.6 7.781-.326 2.723-2.91 4.732-3.527 5.2-1.81 1.457-2.552.995-3.706 2.288-1.655 1.841-.9 3.543-2.047 5.419-.765 1.212-2.346 2.626-6.185 3.166-2.319 1.266-3.722.967-4.308.742-3.116-1.177-4.728-7.144-2.937-14.93a6.055 6.055 0 0 0 5.4.066 5.09 5.09 0 0 0 2.455-3.481c.4-2.179-.824-4.615-2.5-5.221-2.144-.8-3.947 1.667-5.081 1.018-2.3-1.375 4.429-12.552.971-16.441-1.807-2.043-4.938-.381-14.491-.058-6.371.253-10.641.412-13.449-.726a12 12 0 0 1-5.6-8.846 11.764 11.764 0 0 1 3.1-8.613 11.294 11.294 0 0 1 6.224-3.364c3.221-.455 3.7 1.092 7.16.905 4.075-.233 4.405-2.413 8.325-2.525a11.835 11.835 0 0 1 7.21 2.339c2.428 1.8 1.737 2.937 4.009 4.662 3.17 2.459 5.171.653 8.535 3.147a10.935 10.935 0 0 1 3.784 5.594c.524 1.9-.136 2.063.307 3.652.967 3.485 4.188 3.38 5.738 6.977a9.831 9.831 0 0 1 .482 5.59c-.593 3.153-2.259 3.285-2.469 5.659Z" fill="#26376e"/>
      <path data-name="Tracciato 2044" d="M481.096 105.179c-1.791 7.785-.179 13.752 2.937 14.93.587.225 1.989.524 4.308-.742l.051 5.283c-.2.249-3.939 4.67-9.444 3.858a10.256 10.256 0 0 1-6.363-3.749c-.039-.579-.078-1.162-.12-1.744-.078-1.15-.163-2.3-.245-3.454a16.035 16.035 0 0 1-6.406.563 14.108 14.108 0 0 1-6.2-2.156c-5.905-4.021-10.318-22.9-5.213-37.633 2.809 1.138 7.078.979 13.449.726 9.553-.322 12.684-1.985 14.491.058 3.458 3.889-3.275 15.065-.971 16.441 1.134.649 2.937-1.814 5.081-1.018 1.674.606 2.9 3.042 2.5 5.221a5.09 5.09 0 0 1-2.455 3.481 6.055 6.055 0 0 1-5.4-.065Z" fill="#f9978a"/>
    </g>
    <g data-name="Raggruppa 626">
      <g data-name="Raggruppa 623">
        <path data-name="Tracciato 2045" d="M286.069 359.149c-20-38.515-33.561-77.033-53.561-115.547l-.373-89.573h-81.737q-.186 45.389-.369 90.781l-49.454 114.339c-.233.715-4.227 13.764 5.342 23.853 8.03 8.469 19.3 8.189 20.827 8.127H259.9c1.531.062 12.8.342 20.831-8.127 9.568-10.089 5.571-23.139 5.338-23.853Z" fill="#cae3f8"/>
        <path data-name="Tracciato 2046" d="M222.683 305.689c-19.339-1.977-26.308-17.272-48.429-24.238-9.6-3.022-22.629-4.619-39.781-.68l-33.9 78.377c-.233.715-4.227 13.764 5.342 23.853 8.03 8.469 19.3 8.189 20.827 8.127H259.9c1.531.062 12.8.342 20.831-8.127 9.568-10.089 5.571-23.138 5.338-23.853-11.045-21.27-20.131-42.535-29.416-63.8-9.953 6.779-21.562 11.607-33.97 10.341Z" fill="#407bb7"/>
        <g data-name="Raggruppa 622" transform="translate(123.344 304.358)" fill="#0783ff">
          <path data-name="Tracciato 2047" d="M20.007 56.089a10 10 0 1 1-10-10 10 10 0 0 1 10 10Z"/>
          <circle data-name="Ellisse 419" cx="5.109" cy="5.109" r="5.109" transform="translate(40.421)"/>
          <path data-name="Tracciato 2048" d="M138.619 72.3a4.295 4.295 0 1 1-4.293-4.293 4.295 4.295 0 0 1 4.293 4.293Z"/>
          <circle data-name="Ellisse 420" cx="7.514" cy="7.514" r="7.514" transform="translate(54.317 56.093)"/>
          <path data-name="Tracciato 2049" d="M124.276 30.433a12.849 12.849 0 1 1-12.851-12.847 12.85 12.85 0 0 1 12.851 12.847Z"/>
        </g>
        <path data-name="Tracciato 2050" d="M237.035 154.028H147.33a7.844 7.844 0 0 1 0-15.687h89.705a7.844 7.844 0 0 1 0 15.687Z" fill="#bed8f1"/>
      </g>
      <g data-name="Raggruppa 624" fill="#0783ff">
        <path data-name="Tracciato 2051" d="M225.458 36.616c-10.955-7.579-25.368-7.362-36.152-.944a17.789 17.789 0 0 0-7.136-10.792 18.072 18.072 0 0 0-24.677 4.3c-6.173 8.865-2.319 22.206 7.591 26.514a17.3 17.3 0 0 0 9.568 1.13 35.144 35.144 0 0 0 4.945 24.735 18.6 18.6 0 0 0-4.254 4.242c-6.973 10.015-2.622 25.085 8.574 29.948.167.07.346.093.513.159-.058.183-.148.342-.2.528a11.765 11.765 0 1 0 20.73-4.095 19.3 19.3 0 0 0 5.171-6.779 19.5 19.5 0 0 0 1.593-9.592 32.675 32.675 0 0 0 13.733-59.357Z"/>
        <path data-name="Tracciato 2052" d="M158.086 22.192a9.8 9.8 0 0 0-16.957-9.631 10.068 10.068 0 0 0 4.18 14.592 9.927 9.927 0 0 0 12.777-4.961Z"/>
        <path data-name="Tracciato 2053" d="M221.899 105.223a8.039 8.039 0 1 0 5.753 9.805 8.039 8.039 0 0 0-5.753-9.805Z"/>
        <path data-name="Tracciato 2054" d="M191.57 15.945a6.209 6.209 0 1 0 8.69-1.239 6.214 6.214 0 0 0-8.69 1.239Z"/>
        <path data-name="Tracciato 2055" d="M196.232 6.005a3.754 3.754 0 1 0-5.256.75 3.756 3.756 0 0 0 5.256-.75Z"/>
      </g>
      <g data-name="Raggruppa 625">
        <path data-name="Tracciato 2056" d="M239.151 504.587a11.22 11.22 0 0 1-1.088 4.817h-90.827a11.22 11.22 0 0 1-1.088-4.817 11.44 11.44 0 0 1 3.3-8 11.278 11.278 0 0 1 7.964-3.3h70.471a11.307 11.307 0 0 1 11.268 11.3Z" fill="#5373ac"/>
        <path data-name="Tracciato 2057" d="M266.346 520.32a10.476 10.476 0 0 1-.932 4.39H119.886a10.475 10.475 0 0 1-.932-4.39 10.943 10.943 0 0 1 10.913-10.916h125.562a10.954 10.954 0 0 1 10.917 10.916Z" fill="#1e4e90"/>
        <path data-name="Tracciato 2058" d="M376.987 531.237a6.541 6.541 0 0 1-6.527 6.527H6.523a6.527 6.527 0 0 1 0-13.053h42.31V204.637H19.735a4.856 4.856 0 1 1 0-9.712h29.1V68.278a4.856 4.856 0 1 1 9.712 0v126.646h276.561a4.856 4.856 0 1 1 0 9.712H58.545V524.71h311.92a6.566 6.566 0 0 1 6.522 6.527Z" fill="#5373ac"/>
        <path data-name="Tracciato 2059" d="M208.927 478.442a22.225 22.225 0 0 1-31.207 0c-8.314-9.048-2.6-32.477 15.6-56.832 18.21 24.354 23.921 47.779 15.607 56.832Z" fill="#f5333f"/>
        <path data-name="Tracciato 2060" d="M68.471 199.769a14.766 14.766 0 1 1-14.766-14.766 14.768 14.768 0 0 1 14.766 14.766Z" fill="#1e4e90"/>
        <path data-name="Tracciato 2061" d="M254.874 210.11H129.491a10.341 10.341 0 1 1 0-20.683h125.383a10.341 10.341 0 0 1 0 20.683Z" fill="#1e4e90"/>
      </g>
    </g>
  </g>
</svg>
