<svg xmlns="http://www.w3.org/2000/svg" viewBox="0 0 660.053 543.958">
  <g data-name="Raggruppa 657">
    <g data-name="Raggruppa 632">
      <g data-name="Raggruppa 628" transform="translate(116.892 35.933)">
        <path data-name="Tracciato 2062" d="m297.326 263.86-29.312 23.194-9.416 7.473-34.155 27.026 7.477 9.442 26.679-21.119v18.274c-8.106 11.462-30.112 39.214-68.94 51.459a131.034 131.034 0 0 1-38.2 5.807 127.742 127.742 0 0 1-82.111-225.611 31.2 31.2 0 0 1-14.683-18.647 151.5 151.5 0 0 0 141.39 261.282c53.422-16.9 80.878-59.906 89.224-74.291v-39.393l19.523-15.454Z" fill="#407bb7"/>
        <path data-name="Tracciato 2063" d="M241.12 497.267c-.08-.745-.132-1.461-.212-2.206a21.7 21.7 0 0 0-21.175-17.294H173.85a26.927 26.927 0 0 0 .266-3.883v-76.017a29.152 29.152 0 1 0-58.3 0v76.018a26.917 26.917 0 0 0 .263 3.883H70.196a21.7 21.7 0 0 0-21.174 17.291c-.08.745-.132 1.461-.212 2.206-.08.694-.161 1.41-.215 2.1v8.642h192.738v-8.64a51.66 51.66 0 0 0-.213-2.1Z" fill="#cae3f8"/>
        <path data-name="Rettangolo 1652" fill="#cae3f8" d="m42.246 71.304 48.235-38.206 143.707 181.427-48.235 38.207z"/>
        <path data-name="Rettangolo 1653" fill="#407bb7" d="m195.678 244.999 28.661-22.686 11.378 14.374-28.66 22.687z"/>
        <path data-name="Tracciato 2064" d="M82.452 39.484 50.239 64.952l-2.537-3.212-9.635-12.172-10.052-12.685 32.212-25.5Z" fill="#cae3f8"/>
        <path data-name="Tracciato 2065" d="m62.263 9.83-36.2 28.663a5.511 5.511 0 0 1-6.841-8.642L55.43 1.191a5.51 5.51 0 1 1 6.841 8.639Z" fill="#f5333f"/>
        <path data-name="Tracciato 2066" d="M98.705 40.67 47.679 81.059a5.511 5.511 0 0 1-6.841-8.642l51.029-40.389a5.51 5.51 0 1 1 6.838 8.642Z" fill="#f5333f"/>
        <path data-name="Tracciato 2067" d="m235.516 213.457-51.026 40.389a5.511 5.511 0 1 1-6.841-8.642l51.026-40.389a5.511 5.511 0 0 1 6.841 8.642Z" fill="#f5333f"/>
        <path data-name="Rettangolo 1654" fill="#cae3f8" d="m204.589 322.307 100.722-79.726 7.281 9.198-100.722 79.726z"/>
        <path data-name="Tracciato 2068" d="M115.839 132.618a22.466 22.466 0 0 1-.106 2.341 31.171 31.171 0 0 1-61.072 6.2 30.177 30.177 0 0 1-1.2-8.54 31.188 31.188 0 1 1 62.376 0Z" fill="#f5333f"/>
        <circle data-name="Ellisse 421" cx="18.541" cy="18.541" r="18.541" transform="translate(66.119 114.088)" fill="#fff"/>
        <circle data-name="Ellisse 422" cx="15.133" cy="15.133" r="15.133" transform="translate(129.832 381.007)" fill="#fff"/>
        <circle data-name="Ellisse 423" cx="8.997" cy="8.997" r="8.997" transform="translate(135.968 387.142)" fill="#f5333f"/>
        <path data-name="Tracciato 2069" d="M241.333 499.37v8.642H48.595v-8.642c.055-.694.135-1.41.215-2.1h192.31c.081.69.161 1.406.213 2.1Z" fill="#f5333f"/>
      </g>
      <g data-name="Raggruppa 629" fill="#0783ff">
        <path data-name="Tracciato 2070" d="M127.596 465.177a4.557 4.557 0 0 0-1.413-2.087L75.44 430.717l45.573-29.1h-11.916l-39.631 25.275-39.632-25.275H17.92l45.572 29.1-50.743 32.373a4.557 4.557 0 0 0-1.415 2.087c-.032.27-.032.61-.032.61-.061.029.013.514.032.642a5.161 5.161 0 0 0 1.413 2.088c1.156.912 22.067 14.256 50.743 32.373l-47.21 30.157h11.883l41.3-26.335 41.3 26.335h11.883l-47.21-30.157 50.747-32.373a4.573 4.573 0 0 0 1.413-2.088 5.851 5.851 0 0 0 .032-.642s0-.34-.032-.61ZM69.466 497.1l-49.009-31.313 49.009-31.281 49.041 31.281Z"/>
        <path data-name="Rettangolo 1655" d="M0 388.741h136.493v12.878H0z"/>
        <path data-name="Rettangolo 1656" d="M.803 531.047h136.493v12.911H.803z"/>
      </g>
      <g data-name="Raggruppa 631">
        <path data-name="Tracciato 2071" d="M164.594 97.676q-3.18 4.143-6.937 8.575c-17.054 19.816-23.22 24.575-33.433 10.894.128-.193.321-.385.482-.578a199.394 199.394 0 0 0 13.1-16.989c3.565 1.67 8.318-3.668 17.15-14.073Z" fill="#88c8c7"/>
        <path data-name="Tracciato 2072" d="M120.53 97.431c4.721-14.42 7.74-24.087 5.46-32.983 2.055 8.543 3.629 15.416 5.074 20.715-4.111 4.689-7.547 8.8-10.534 12.268Z" fill="#88c8c7"/>
        <path data-name="Tracciato 2073" d="M144.778 88.76a245.043 245.043 0 0 1-6.969 10.817 199.394 199.394 0 0 1-13.1 16.989c-.161.193-.353.385-.482.578-6.038 6.969-10.663 12.018-14.613 14.972-5.4 20.426-3.982 36.612-6.873 159.167H15.479c3.276-40.627 10.887-124.353 31.217-182.451 13.2-37.8 31.763-64.746 58-61.952 4.368 1.381 8.7 2.762 13.039 4.143a28.637 28.637 0 0 1 6.809 9.249 25.742 25.742 0 0 1 1.445 4.175c2.28 8.9-.739 18.563-5.46 32.983 2.987-3.469 6.423-7.579 10.534-12.268a374.345 374.345 0 0 1 7-7.933c.257.45.514.867.771 1.317 1.67 2.858 3.308 5.717 5.01 8.575.291.547.613 1.093.934 1.639Z" fill="#afe1e1"/>
        <path data-name="Tracciato 2074" d="M114.393 387.955a1.109 1.109 0 0 1-1 .774H85.682a4.111 4.111 0 0 1-.967-1c-.707-.963-.668-1.994-.636-3.793v-.572c.064-.835.064-1.709.1-2.576 0-1.766 0-3.469-.1-5.106a.21.21 0 0 0 .064-.257c-.707-10.984-2.537-19.976-5.717-32.4-4.882-18.884-7.451-28.294-8.864-37.9-.45-3.083-.8-8.125-1.028-13.842h23.413c.61 34.2 1.413 75.344 2.088 80.161a16.42 16.42 0 0 0 .642 2.666c.482 1.542 1.445 4.464 3.982 6.166a29.757 29.757 0 0 0 3.469 1.509c1.606.674 2.633 1 3.886 1.509a.793.793 0 0 1 .157.071c.161.064.389.154.613.25 2.055.931 4.4 1.927 7.059 3.244a.977.977 0 0 1 .55 1.096Z" fill="#f9978a"/>
        <path data-name="Tracciato 2075" d="M59.222 387.987a.968.968 0 0 1-.935.774H30.573a1.082 1.082 0 0 1-.678-.292 5.191 5.191 0 0 1-.289-.674 7.436 7.436 0 0 1-.292-4.429c.164-1.188.456-2.479.713-4.021.128-1 .289-2.505.418-4.336.9-10.952.417-20.1-.9-32.887-2.023-19.4-3.18-29.065-3.18-38.764 0-2.7.064-7.066.193-12.076h21.678c-4.175 40.5-6.841 76.179-7.194 78.363a17.833 17.833 0 0 0-.225 2.923 14.717 14.717 0 0 0 1.028 5.556 4.516 4.516 0 0 0 1.253 1.574 21.573 21.573 0 0 0 3.87 2.152c1.156.578 2.136.777 3.87 1.516 2.248.963 4.911 2.081 7.9 3.526a.962.962 0 0 1 .484 1.095Z" fill="#f9978a"/>
        <path data-name="Tracciato 2076" d="M58.736 386.892a.948.948 0 0 1 .485 1.1.962.962 0 0 1-.935.774H30.574a1.065 1.065 0 0 1-.678-.292 5 5 0 0 1-.289-.674 7.361 7.361 0 0 1-.292-4.429h21.524c2.242.936 4.911 2.092 7.897 3.521Z" fill="#26376e"/>
        <path data-name="Tracciato 2077" d="M114.393 387.955a1.1 1.1 0 0 1-1 .774H85.682a4.11 4.11 0 0 1-.967-1c-.681-.976-.668-1.975-.636-3.793v-.572h22.093c2.21.973 4.782 2.065 7.672 3.494a.966.966 0 0 1 .549 1.097Z" fill="#26376e"/>
        <path data-name="Tracciato 2078" d="M158.427 73.28c-1.285 2.923-6.391 4.946-7.515 5.717-2.12 1.445-2.955 3.244-7.066 8.125-1.7-2.858-3.34-5.717-5.01-8.575 3.5-5.781 11.08-11.4 11.883-11.594 5.781-1.541 9.988 1.124 7.708 6.327Z" fill="#26376e"/>
        <path data-name="Tracciato 2079" d="M135.978 30.501a29.624 29.624 0 0 0 .225-17.407 25.326 25.326 0 0 1-23.958 10.149c-1.7-3.147-6.134-2.184-5.974 1.831.193 5.042 8.19 1.477 2.505 15.287a24.137 24.137 0 0 1-4.047 6.52c-26.271-2.794-44.834 24.151-58.034 61.952-8.447-2.152-13.489-10.213-9.8-23.027 3.308-11.465 11.754-10.984 21.293-23.894 11.176-15.094 4.464-22.288 14.838-30.7 9.089-7.322 17.856-4.785 24.087-14.452 2.441-3.758 2.7-6.616 6.648-10.245 18.214-16.704 50.651 1.409 32.217 23.986Z" fill="#26376e"/>
        <path data-name="Tracciato 2080" d="M117.736 51.024c-3.212 44.577-7.644 39.7-13.007-4.143Z" fill="#fff"/>
        <path data-name="Tracciato 2081" d="M135.978 30.502c-2.794 8.9-9.121 15.127-13.713 14.741-3.6-.321-1.863-3.179-4.528 5.781a10.651 10.651 0 0 1-13.007-4.143 24.137 24.137 0 0 0 4.047-6.52c5.685-13.81-2.312-10.245-2.505-15.287-.161-4.014 4.271-4.978 5.974-1.831a25.326 25.326 0 0 0 23.958-10.149 29.624 29.624 0 0 1-.226 17.408Z" fill="#f9978a"/>
        <path data-name="Tracciato 2082" d="M109.386 132.277c-10.309 21.71-31.57-8.254-36.195-37.222a195.669 195.669 0 0 0 9.217 18.306c11.69 20.522 17.279 26.078 26.978 18.916Z" fill="#88c8c7"/>
        <path data-name="Tracciato 2083" d="M114.139 104.561c-11.851 12.268-13.585 5.3-22.642-32.6a.6.6 0 0 1 .1-.128c2.569-.674 9.86 33.658 14.645 34.974 3.725 1.028 7.708-3.34 8.061-2.858.061.062-.004.291-.164.612Z" fill="#88c8c7"/>
        <g data-name="Raggruppa 630" fill="#fff">
          <path data-name="Tracciato 2084" d="M138.599 95.085a1.349 1.349 0 1 0-1.815-.591 1.349 1.349 0 0 0 1.815.591Z"/>
          <path data-name="Tracciato 2085" d="M141.849 89.672a1.348 1.348 0 1 0-1.815-.591 1.349 1.349 0 0 0 1.815.591Z"/>
        </g>
      </g>
    </g>
    <g data-name="Raggruppa 656">
      <path data-name="Tracciato 2119" d="M444.484 46.852v497.106h215.568V46.852Zm203.188 186.889h-190.8v-91.706h190.8Zm0-174.506v71.338h-190.8V59.235Zm-190.8 257.299v-71.329h190.8v71.33Z" fill="#cae3f8"/>
      <path data-name="Rettangolo 1657" fill="#b1cbf3" d="M456.867 330.14h89.397v200.485h-89.397z"/>
      <path data-name="Rettangolo 1658" fill="#fff" d="M528.782 413.655h6.019v33.457h-6.019z"/>
      <path data-name="Rettangolo 1659" fill="#b1cbf3" d="M558.273 330.14h89.397v200.485h-89.397z"/>
      <path data-name="Rettangolo 1660" fill="#fff" d="M569.735 413.655h6.019v33.457h-6.019z"/>
      <g data-name="Raggruppa 640">
        <path data-name="Tracciato 2120" d="M489.235 91.895a1.094 1.094 0 0 1-1.089 1.093h-8.9a1.091 1.091 0 0 1 0-2.182h8.9a1.093 1.093 0 0 1 1.089 1.089Z" fill="#bed8f1"/>
        <path data-name="Tracciato 2121" d="m495.496 125.499-7.581-18.313c-.015-4.734-.046-9.468-.061-14.2h-8.306l-.05 14.389-7.481 18.122a4.791 4.791 0 0 0 .676 3.782 3.167 3.167 0 0 0 2.636 1.288h16.854a3.167 3.167 0 0 0 2.636-1.288 4.792 4.792 0 0 0 .677-3.78Z" fill="#cae3f8"/>
        <path data-name="Tracciato 2122" d="m495.495 125.499-3.943-9.548c-2.629.225-5.49.363-8.555.351-2.5-.011-4.86-.122-7.061-.3q-1.96 4.751-3.92 9.495a5.234 5.234 0 0 0 .676 3.782 3.167 3.167 0 0 0 2.636 1.288h16.853a3.167 3.167 0 0 0 2.636-1.288 4.792 4.792 0 0 0 .678-3.78Z" fill="#407bb7"/>
      </g>
      <g data-name="Raggruppa 641">
        <path data-name="Tracciato 2123" d="M574.654 161.789a2.038 2.038 0 0 1-2.025 2.025h-16.525a2.025 2.025 0 1 1 0-4.05h16.525a2.036 2.036 0 0 1 2.025 2.025Z" fill="#bed8f1"/>
        <path data-name="Tracciato 2124" d="m586.273 224.194-14.045-34.013c-.088-8.792-.118-17.579-.149-26.367h-15.424q-.046 13.359-.088 26.723l-13.9 33.657c-.053.214-.993 4.054 1.257 7.023a5.877 5.877 0 0 0 4.894 2.392h31.3a5.887 5.887 0 0 0 4.9-2.392c2.249-2.969 1.309-6.809 1.255-7.023Z" fill="#cae3f8"/>
        <path data-name="Tracciato 2125" d="M586.274 224.194q-2.877-6.969-5.758-13.942l-32.137.115q-2.854 6.918-5.712 13.827c-.111.623-.714 4.424 1.257 7.023a5.877 5.877 0 0 0 4.894 2.392h31.3a5.887 5.887 0 0 0 4.9-2.392c2.249-2.969 1.312-6.809 1.256-7.023Z" fill="#407bb7"/>
      </g>
      <g data-name="Raggruppa 642">
        <path data-name="Tracciato 2126" d="M628.385 178.398a1.565 1.565 0 0 1-1.559 1.559h-12.73a1.561 1.561 0 0 1 0-3.121h12.731a1.569 1.569 0 0 1 1.558 1.562Z" fill="#bed8f1"/>
        <path data-name="Tracciato 2127" d="m637.342 226.479-10.821-26.206c-.073-6.774-.1-13.545-.115-20.315H614.52l-.069 20.59-10.706 25.932a6.868 6.868 0 0 0 .967 5.41 4.541 4.541 0 0 0 3.771 1.842H632.6a4.533 4.533 0 0 0 3.771-1.842 6.861 6.861 0 0 0 .971-5.411Z" fill="#cae3f8"/>
        <path data-name="Tracciato 2128" d="M637.342 226.478q-1.416-3.433-2.831-6.858l-28.018.206q-1.376 3.324-2.747 6.652c-.084.478-.55 3.4.967 5.41a4.541 4.541 0 0 0 3.771 1.842h24.117a4.533 4.533 0 0 0 3.771-1.842 6.861 6.861 0 0 0 .97-5.41Z" fill="#0783ff"/>
      </g>
      <g data-name="Raggruppa 643">
        <path data-name="Tracciato 2129" d="M543.95 266.986a1.4 1.4 0 0 1-1.395 1.4h-11.4a1.4 1.4 0 1 1 0-2.793h11.4a1.4 1.4 0 0 1 1.395 1.393Z" fill="#bed8f1"/>
        <path data-name="Tracciato 2130" d="m551.966 310.034-9.686-23.46c-.065-6.064-.084-12.127-.1-18.191h-10.643q-.034 9.216-.061 18.435l-9.586 23.215a6.127 6.127 0 0 0 .867 4.845 4.065 4.065 0 0 0 3.378 1.651h21.59a4.069 4.069 0 0 0 3.378-1.651 6.136 6.136 0 0 0 .863-4.844Z" fill="#cae3f8"/>
        <path data-name="Tracciato 2131" d="M551.966 310.034q-2.522-6.115-5.051-12.234l-20.006.073-5.021 12.162c-.076.432-.493 3.053.867 4.845a4.065 4.065 0 0 0 3.378 1.651h21.596a4.069 4.069 0 0 0 3.378-1.651 6.136 6.136 0 0 0 .859-4.846Z" fill="#f5333f"/>
      </g>
      <g data-name="Raggruppa 644">
        <path data-name="Tracciato 2132" d="M582.582 277.856a1.1 1.1 0 0 1-1.089 1.093h-8.9a1.091 1.091 0 0 1 0-2.182h8.9a1.1 1.1 0 0 1 1.089 1.089Z" fill="#bed8f1"/>
        <path data-name="Tracciato 2133" d="m588.841 311.456-7.58-18.313c-.015-4.734-.05-9.464-.065-14.2h-8.306l-.046 14.389-7.485 18.124a4.809 4.809 0 0 0 .676 3.783 3.171 3.171 0 0 0 2.636 1.288h16.857a3.171 3.171 0 0 0 2.636-1.288 4.81 4.81 0 0 0 .677-3.783Z" fill="#cae3f8"/>
        <path data-name="Tracciato 2134" d="m588.843 311.459-3.943-9.548-15.619.057-3.92 9.491a5.275 5.275 0 0 0 .676 3.783 3.171 3.171 0 0 0 2.636 1.288h16.857a3.171 3.171 0 0 0 2.636-1.288 4.81 4.81 0 0 0 .677-3.783Z" fill="#0783ff"/>
      </g>
      <g data-name="Raggruppa 648">
        <g data-name="Raggruppa 645" transform="translate(525.775 79.09)">
          <rect data-name="Rettangolo 1661" width="7.948" height="8.824" rx=".364" transform="translate(1.474)" fill="#5373ac"/>
          <path data-name="Tracciato 2135" d="M10.897 4.411a1.076 1.076 0 0 1-1.07 1.074H1.07a1.072 1.072 0 0 1 0-2.144h8.757a1.073 1.073 0 0 1 1.07 1.07Z" fill="#bed8f1"/>
          <path data-name="Tracciato 2136" d="M9.582 6.107v32.431a4.134 4.134 0 1 1-8.268 0V6.107a4.2 4.2 0 0 1 .046-.623h8.177a4.181 4.181 0 0 1 .045.623Z" fill="#cae3f8"/>
          <path data-name="Tracciato 2137" d="M9.582 22.708v15.829a4.134 4.134 0 1 1-8.268 0V22.708Z" fill="#407bb7"/>
        </g>
        <g data-name="Raggruppa 646" transform="translate(544.313 79.09)">
          <rect data-name="Rettangolo 1662" width="7.948" height="8.824" rx=".364" transform="translate(1.478)" fill="#5373ac"/>
          <path data-name="Tracciato 2138" d="M10.901 4.411a1.08 1.08 0 0 1-1.074 1.074H1.074a1.072 1.072 0 1 1 0-2.144h8.753a1.076 1.076 0 0 1 1.074 1.07Z" fill="#bed8f1"/>
          <path data-name="Tracciato 2139" d="M9.586 6.107v32.431a4.132 4.132 0 1 1-8.264 0V6.107a4.2 4.2 0 0 1 .046-.623h8.165a4.2 4.2 0 0 1 .053.623Z" fill="#cae3f8"/>
          <path data-name="Tracciato 2140" d="M9.582 22.708v15.829a4.132 4.132 0 1 1-8.264 0V22.708Z" fill="#f5333f"/>
        </g>
        <g data-name="Raggruppa 647" transform="translate(562.856 79.09)">
          <rect data-name="Rettangolo 1663" width="7.948" height="8.824" rx=".364" transform="translate(1.477)" fill="#5373ac"/>
          <path data-name="Tracciato 2141" d="M10.901 4.411a1.08 1.08 0 0 1-1.074 1.074H1.074a1.072 1.072 0 1 1 0-2.144h8.753a1.076 1.076 0 0 1 1.074 1.07Z" fill="#bed8f1"/>
          <path data-name="Tracciato 2142" d="M9.58 6.107v32.431a4.132 4.132 0 1 1-8.264 0V6.107a4.181 4.181 0 0 1 .046-.623h8.173a4.2 4.2 0 0 1 .045.623Z" fill="#cae3f8"/>
          <path data-name="Tracciato 2143" d="M9.58 20.141v18.4a4.132 4.132 0 1 1-8.264 0V20.156q4.134-.006 8.264-.015Z" fill="#0783ff"/>
        </g>
        <path data-name="Tracciato 2144" d="M581.899 130.534h-64.266V94.401h64.266Zm-61.4-2.866h58.534v-30.4h-58.534Z" fill="#417bff"/>
      </g>
      <g data-name="Raggruppa 649">
        <path data-name="Tracciato 2145" d="M627.071 99.228a1.185 1.185 0 0 1-.348.837 1.17 1.17 0 0 1-.829.344h-25.912a1.183 1.183 0 0 1-.837-2.017 1.2 1.2 0 0 1 .837-.344h25.912a1.183 1.183 0 0 1 1.177 1.18Z" fill="#bed8f1"/>
        <path data-name="Tracciato 2146" d="M625.321 100.408v26.4a3.773 3.773 0 0 1-3.748 3.767h-17.266a3.774 3.774 0 0 1-3.752-3.767l-.008-26.4Z" fill="#cae3f8"/>
        <path data-name="Tracciato 2147" d="M625.321 117.858v8.952a3.749 3.749 0 0 1-3.748 3.767h-17.266a3.752 3.752 0 0 1-3.752-3.767l.008-8.952Z" fill="#f5333f"/>
      </g>
      <g data-name="Raggruppa 650">
        <path data-name="Tracciato 2148" d="M502.98 277.952a1.476 1.476 0 0 1-.424 1.028 1.46 1.46 0 0 1-1.024.424h-31.888a1.454 1.454 0 1 1 0-2.908h31.888a1.456 1.456 0 0 1 1.448 1.456Z" fill="#bed8f1"/>
        <path data-name="Tracciato 2149" d="M500.829 279.404v32.488a4.643 4.643 0 0 1-4.615 4.635h-21.251a4.64 4.64 0 0 1-4.615-4.635l-.008-32.488Z" fill="#cae3f8"/>
        <path data-name="Tracciato 2150" d="M500.829 300.876v11.015a4.618 4.618 0 0 1-4.615 4.635h-21.245a4.616 4.616 0 0 1-4.615-4.635l.008-11.015Z" fill="#407bb7"/>
      </g>
      <g data-name="Raggruppa 652">
        <g data-name="Raggruppa 651">
          <path data-name="Tracciato 2151" d="M627.277 258.932a1.31 1.31 0 0 1-1.307 1.3h-10.644a1.305 1.305 0 0 1 0-2.61h10.645a1.311 1.311 0 0 1 1.306 1.31Z" fill="#bed8f1"/>
          <path data-name="Tracciato 2152" d="M635.19 290.84a14.749 14.749 0 0 1-14.557 14.557 14.545 14.545 0 0 1-14.519-14.557 13.346 13.346 0 0 1 .917-4.967 14.409 14.409 0 0 1 8.6-8.673v-16.315a3.485 3.485 0 0 1 .038-.65h9.93a3.365 3.365 0 0 1 .076.65V277.2a15.733 15.733 0 0 1 8.558 8.673 13.052 13.052 0 0 1 .957 4.967Z" fill="#cae3f8"/>
          <path data-name="Tracciato 2153" d="M635.19 290.839a14.749 14.749 0 0 1-14.557 14.557 14.545 14.545 0 0 1-14.519-14.557 13.346 13.346 0 0 1 .917-4.967h27.2a13.052 13.052 0 0 1 .959 4.967Z" fill="#f5333f"/>
        </g>
        <path data-name="Tracciato 2154" d="M634.942 293.876h1.758a.775.775 0 0 0 .764-.8v-.306a.766.766 0 0 0-.764-.764h-32.057a.776.776 0 0 0-.8.764v.306a.783.783 0 0 0 .8.8h1.528l-3.935 22.657h1.414l3.935-22.657h25.943l3.935 22.657h1.414Z" fill="#5373ac"/>
      </g>
      <g data-name="Raggruppa 655">
        <g data-name="Raggruppa 653" transform="translate(480.233 163.845)">
          <path data-name="Tracciato 2155" d="M32.577 38.57c-3.492-6.728-5.861-13.457-9.353-20.185q-.034-7.823-.065-15.646H8.881q-.034 7.926-.065 15.856L.177 38.57a4.39 4.39 0 0 0 .932 4.165 4.942 4.942 0 0 0 3.641 1.417h23.257a4.931 4.931 0 0 0 3.637-1.417 4.368 4.368 0 0 0 .933-4.165Z" fill="#cae3f8"/>
          <rect data-name="Rettangolo 1664" width="18.408" height="2.739" rx=".322" transform="translate(6.976)" fill="#bed8f1"/>
          <path data-name="Tracciato 2156" d="M21.508 29.233c-3.378-.348-4.6-3.018-8.459-4.234a12.961 12.961 0 0 0-6.95-.122L.177 38.571a4.39 4.39 0 0 0 .932 4.165 4.942 4.942 0 0 0 3.641 1.417h23.257a4.931 4.931 0 0 0 3.637-1.417 4.368 4.368 0 0 0 .932-4.165c-1.926-3.718-3.515-7.431-5.135-11.145a9.029 9.029 0 0 1-5.933 1.807Z" fill="#f5333f"/>
        </g>
        <g data-name="Raggruppa 654" transform="translate(462.831 150.743)">
          <path data-name="Tracciato 2157" d="M41.799 76.873v.382a1.292 1.292 0 0 1-.149.65H25.68a1.223 1.223 0 0 1-.157-.65v-.382a1.765 1.765 0 0 1 1.8-1.757h12.685a1.758 1.758 0 0 1 1.791 1.757Z" fill="#5373ac"/>
          <path data-name="Tracciato 2158" d="M46.537 79.625v.382a1.527 1.527 0 0 1-.111.573H20.903a1.537 1.537 0 0 1-.119-.573v-.382a1.715 1.715 0 0 1 1.723-1.719h22.314a1.709 1.709 0 0 1 1.716 1.719Z" fill="#2f5aa4"/>
          <path data-name="Tracciato 2159" d="M65.87 81.612v.229a1.026 1.026 0 0 1-1.028 1.032H1.035A1.028 1.028 0 0 1 0 81.841v-.229a1.028 1.028 0 0 1 1.035-1.032h7.523v-55.9H3.442a.851.851 0 0 1-.844-.841.827.827 0 0 1 .844-.841h5.116V.879a.841.841 0 1 1 1.681 0v22.122h48.3a.826.826 0 0 1 .841.841.851.851 0 0 1-.841.841h-48.3v55.9h54.6a1.026 1.026 0 0 1 1.031 1.029Z" fill="#5373ac"/>
          <circle data-name="Ellisse 426" cx="2.579" cy="2.579" r="2.579" transform="translate(6.814 21.252)" fill="#2f5aa4"/>
          <path data-name="Rettangolo 1665" d="M21.249 22.025h24.665a.425.425 0 0 1 .425.425v2.763a.424.424 0 0 1-.424.424H21.249a.424.424 0 0 1-.424-.424v-2.764a.424.424 0 0 1 .424-.424Z" fill="#2f5aa4"/>
        </g>
      </g>
    </g>
  </g>
</svg>
