<svg xmlns="http://www.w3.org/2000/svg" viewBox="0 0 473.738 595.327">
  <g data-name="Raggruppa 639">
    <g data-name="Raggruppa 633" fill="#f5333f">
      <path data-name="Tracciato 2086" d="m213.82 590.499-31.162-112.46a3.81 3.81 0 0 0-7.342 2.034l8.374 30.222h-75.875l-8.938-32.256a3.81 3.81 0 0 0-7.342 2.034l31.162 112.46a3.813 3.813 0 0 0 3.667 2.8 3.722 3.722 0 0 0 1.017-.141 3.811 3.811 0 0 0 2.658-4.688l-6.859-24.746h75.875l7.422 26.779a3.813 3.813 0 0 0 3.667 2.8 3.722 3.722 0 0 0 1.017-.141 3.811 3.811 0 0 0 2.659-4.697Zm-92.749-32.362-11.144-40.226h75.875l11.147 40.226Z"/>
      <path data-name="Tracciato 2087" d="M189.193 472.174H24.766a5.375 5.375 0 0 0 0 10.751h5.183L.138 590.499a3.811 3.811 0 0 0 2.658 4.688 3.72 3.72 0 0 0 1.017.141 3.813 3.813 0 0 0 3.667-2.8l7.422-26.779h75.875l-6.859 24.746a3.811 3.811 0 0 0 2.658 4.688 3.72 3.72 0 0 0 1.017.141 3.813 3.813 0 0 0 3.667-2.8l30.37-109.599h67.561a5.375 5.375 0 1 0 0-10.751Zm-96.306 85.963H17.012l11.147-40.226h75.871Zm13.256-47.847H30.269l7.582-27.37h75.879Z"/>
    </g>
    <g data-name="Raggruppa 636">
      <path data-name="Tracciato 2088" d="M164.87 471.252a1.142 1.142 0 0 1-1.131.922h-32.865a1.18 1.18 0 0 1-1.181-1.173l-.008-18.325h12.605c-.191 3.961-.229 5.217.495 6.664 1.333 2.471 3.846 3.233 7.5 4.642 1.333.5 2.9 1.063 4.616 1.786 2.708 1.1 5.865 2.449 9.368 4.162a1.1 1.1 0 0 1 .601 1.322Z" fill="#f9978a"/>
      <path data-name="Tracciato 2089" d="M129.697 465.761v5.24a1.2 1.2 0 0 0 1.181 1.173h32.865a1.161 1.161 0 0 0 1.131-.922 1.137 1.137 0 0 0-.6-1.321c-3.538-1.7-6.7-3.047-9.368-4.162Z" fill="#26376e"/>
      <path data-name="Tracciato 2090" d="M88.706 471.252a1.142 1.142 0 0 1-1.131.922H54.71a1.18 1.18 0 0 1-1.18-1.173l-.008-18.287c4.189 0 8.416-.038 12.605-.038-.19 3.961-.229 5.217.495 6.664 1.333 2.471 3.846 3.233 7.5 4.642 1.333.5 2.9 1.063 4.615 1.786 2.708 1.1 5.865 2.449 9.368 4.162a1.1 1.1 0 0 1 .601 1.322Z" fill="#f9978a"/>
      <path data-name="Tracciato 2091" d="M53.533 465.761v5.24a1.2 1.2 0 0 0 1.18 1.173h32.865a1.161 1.161 0 0 0 1.131-.922 1.137 1.137 0 0 0-.6-1.321c-3.538-1.7-6.7-3.047-9.368-4.162Z" fill="#26376e"/>
      <path data-name="Tracciato 2092" d="M79.383 349.47q-1.771 19.656-3.237 39.952-2.342 32.275-3.808 63.254h-6.207c-4.189 0-8.416.038-12.605.038h-5.293l-1.371-103.05c10.848-.076 21.664-.114 32.521-.194Z" fill="#26376e"/>
      <path data-name="Tracciato 2093" d="M146.936 452.676h-23.687q-5.084-31.247-10.813-63.22-3.656-20.279-7.464-40.135l34.121-.228q3.943 51.811 7.843 103.583Z" fill="#26376e"/>
      <path data-name="Tracciato 2094" d="M129.651 158.911a149.364 149.364 0 0 1-9.22-6.322c2.213 30.009 5.145 61.2 8.915 93.377a2152.937 2152.937 0 0 0 14.7 103.088l-107.277.685q3.484-86.941 7.007-173.883 11.6-51.7 23.192-103.355c3.808-1.79 7.613-3.618 11.421-5.408 5.141.533 10.244 1.1 15.385 1.638a19.244 19.244 0 0 1 6.436 1.942 27.19 27.19 0 0 1 10.967 9.408c9.943 13.824 2.818 34.426 15.122 50.535 1.9 2.551 5.865 5.293 13.824 10.853a197.418 197.418 0 0 0 32.37 18.394 4285.753 4285.753 0 0 1-14.932 12.377 131.791 131.791 0 0 1-27.91-13.329Z" fill="#afe1e1"/>
      <path data-name="Tracciato 2095" d="M98.272 109.747q-3.547 1.028-19.883-42.652c5.141.533 10.244 1.1 15.385 1.638q7.826 40.1 4.498 41.014Z" fill="#fff"/>
      <g data-name="Raggruppa 634" fill="#fff">
        <path data-name="Tracciato 2096" d="M169.645 164.745a1.6 1.6 0 1 0-.636-2.171 1.6 1.6 0 0 0 .636 2.171Z"/>
        <path data-name="Tracciato 2097" d="M177.117 164.307a1.6 1.6 0 1 0-.636-2.171 1.6 1.6 0 0 0 .636 2.171Z"/>
      </g>
      <path data-name="Tracciato 2098" d="M93.964 65.568c-.038 1.07-.114 2.1-.191 3.165a18.7 18.7 0 0 1-15.385-1.638c-.114-2.742-.229-5.484-.3-8.226a1.512 1.512 0 0 0 .114.152c3.808 3.881 9.482 5.979 14.966 6.512a6.248 6.248 0 0 0 .796.035Z" fill="#f9978a"/>
      <path data-name="Tracciato 2099" d="M75.754 35.674a5.49 5.49 0 0 0 6.634 1.759c4.8 6 8.058 7.1 10.278 6.687 3.572-.663 4.932-5.13 9.9-6.051a11.053 11.053 0 0 1 5.609.571c.05.194.057.442.107.682-.183-3.964-.526-9.631-1.417-16.3-.571-4.2-.99-7.1-1.4-9.132-7.03 3.458-17.171-4.326-22.35-.114-2.209 1.763-3.812 6.032-1.142 16.646a4.344 4.344 0 0 0-5.906-.571c-1.817 1.523-1.348 4.284-.313 5.823Z" fill="#f9978a"/>
      <path data-name="Tracciato 2100" d="M109.045 48.244c.19 7.007.267 10.549-1.447 12.948-2.285 3.237-7.731 4.76-13.633 4.376a6.248 6.248 0 0 1-.8-.034c-5.484-.533-11.158-2.631-14.966-6.512a1.512 1.512 0 0 1-.114-.152c-3.542-3.656-4.646-7.959-6.512-16.033a63.68 63.68 0 0 1-1.637-18.508c.419-7.426.609-11.082 3.047-14.547 3.694-5.411 9.9-6.817 15.918-8.188 2.171-.5 18.241-4.151 21.212 1.634 1.371 2.746-.19 7.43-3.351 9.829a8.54 8.54 0 0 1-1.291.838c-7.007 3.465-17.171-4.341-22.35-.114-2.209 1.752-3.808 6.059-1.142 16.646a4.363 4.363 0 0 0-5.906-.571c-1.828 1.523-1.344 4.258-.316 5.819a5.477 5.477 0 0 0 6.634 1.759c4.8 6.017 8.032 7.068 10.278 6.687 3.58-.685 4.912-5.137 9.9-6.051a10.64 10.64 0 0 1 5.609.571 3.2 3.2 0 0 1 .107.682 57.213 57.213 0 0 1 .76 8.921Z" fill="#26376e"/>
      <path data-name="Tracciato 2101" d="M63.007 141.165c0 5.6.114 11.12.3 16.49a13.083 13.083 0 0 1-1.024-1.028c-.076-.038-.114-.076-.114-.152a2.669 2.669 0 0 1-.3-.381c-6.322-9.406-7.087-21.935 1.215-44.4.267-.381.457-.571.537-.571-.461 9.63-.69 19.645-.614 30.042Z" fill="#88c8c7"/>
      <path data-name="Tracciato 2102" d="M655.911 118.277a29.138 29.138 0 0 1-3.922 2.026l-211.014 90.171a29.329 29.329 0 0 1-38.387-15.423 28.852 28.852 0 0 1-1.752-17.175 29.318 29.318 0 0 1 17.137-21.2l16.074-6.855 24.407-10.434L628.99 66.531a28.823 28.823 0 0 1 4.185-1.447l14.966 35Z" transform="translate(-395.375 18.272)" fill="#cae3f8" style="mix-blend-mode:multiply;isolation:isolate"/>
      <path data-name="Tracciato 2103" d="M288.48 124.713c-5.141-5.659-12.236-6.958-16.238-7.506-31.212-4.273-55.958 6.158-55.958 6.158-61.445 25.9-92.528 48.383-134.239 62.226-17.213 5.712-42.728 11.623-76.583 10.556a28.852 28.852 0 0 0 1.752 17.175 29.329 29.329 0 0 0 38.387 15.423q107.448-46.1 214.935-92.2 7-2.93 14-5.868l.963 2.365c.309.929.781 2.411 1.295 4.25 1.413 5.027 1.211 5.792 2.144 7.14a8.559 8.559 0 0 0 7.974 3.45c3.831-.579 5.861-4.021 6.135-4.5 3.198-5.626-.26-13.932-4.567-18.669Z" fill="#0783ff"/>
      <path data-name="Tracciato 2104" d="M122.26 196.155a14.563 14.563 0 0 1-3.922 7.312c-4.608 4.452-12 4.874-16.908 2.7-2.018-.918-4.608-3.961-10.511-7.845 2.589-3.5 5.217-7.045 7.769-10.549 8.911 4.722 16.6-1.108 20.26 2.628a1.861 1.861 0 0 1 .724 1.52c-.343 2.327-7.54 2.555-7.54 3.888 0 .838 3.123 1.866 6.055 1.6a10.657 10.657 0 0 0 4.073-1.254Z" fill="#f9978a"/>
      <path data-name="Tracciato 2105" d="m78.389 67.095-12.948 38.539a300.058 300.058 0 0 0-2.361 6.055c-8.3 22.468-7.536 35-1.215 44.4a2.669 2.669 0 0 0 .3.381c0 .076.038.114.114.152a9.853 9.853 0 0 0 .8 1.028l-24.407 10.434c-12.834-19.8.834-83.895 20.564-94.52a62.451 62.451 0 0 1 19.153-6.469Z" fill="#afe1e1"/>
      <path data-name="Tracciato 2106" d="M99.909 186.139c-.385.533-.8 1.1-1.222 1.638-2.552 3.5-5.179 7.045-7.769 10.549-.571.762-1.139 1.561-1.71 2.323-10.13-5.027-43.989-22.925-50.306-32.217l-.228-.343 24.407-10.434c7.429 9.786 21.138 16.45 36.828 28.484Z" fill="#afe1e1"/>
      <g data-name="Raggruppa 635" fill="#fff">
        <path data-name="Tracciato 2107" d="M79.672 193.057a1.6 1.6 0 1 0 .5-2.2 1.6 1.6 0 0 0-.5 2.2Z"/>
        <path data-name="Tracciato 2108" d="M86.413 196.307a1.6 1.6 0 1 0 .5-2.209 1.6 1.6 0 0 0-.5 2.209Z"/>
      </g>
      <path data-name="Tracciato 2109" d="M167.821 174.601c-1.912-2.388.328-8.4 4.46-11.063 6.748-4.345 16.383 1.664 16.356 5.046-.034 4.532-17.442 10.221-20.816 6.017Z" fill="#f9978a"/>
      <path data-name="Tracciato 2110" d="M495.947 133.332a7.625 7.625 0 0 1-9.962-4l-24.338-56.954a7.591 7.591 0 0 1 13.961-5.964l24.338 56.956a7.627 7.627 0 0 1-3.999 9.962Z" transform="translate(-224.653 9.081)" fill="#afe1e1" style="mix-blend-mode:multiply;isolation:isolate"/>
    </g>
    <g data-name="Raggruppa 638">
      <path data-name="Tracciato 2111" d="M472.074 543.358q-48.742-93.848-97.472-187.688-.3-72.746-.605-145.5H267.402q-.3 73.729-.605 147.461l-96.025 185.727c-.381 1.161-6.87 22.358 8.675 38.745 13.043 13.755 31.345 13.3 33.828 13.2h216.291c2.487.1 20.785.556 33.832-13.2 15.546-16.387 9.056-37.584 8.676-38.745Z" fill="#cae3f8"/>
      <path data-name="Tracciato 2112" d="M288.423 425.604c-23.23-5.75-43.627-3.458-56.236-1.032l-61.415 118.785c-.381 1.161-6.87 22.358 8.675 38.745 13.043 13.755 31.345 13.3 33.828 13.2h216.291c2.487.1 20.785.556 33.832-13.2 15.545-16.387 9.056-37.583 8.675-38.745L415.556 434.05c-19.567 18.23-35.816 22.023-46.445 22.468-29.106 1.212-42.979-21.58-80.688-30.914Z" fill="#0783ff"/>
      <path data-name="Tracciato 2113" d="M381.537 210.174H261.309a10.964 10.964 0 1 1 0-21.928h120.228a10.964 10.964 0 1 1 0 21.928Z" fill="#bed8f1"/>
      <path data-name="Tracciato 2114" d="M315.263 266.851a13.254 13.254 0 0 1-18.611 0c-4.958-5.392-1.554-19.369 9.307-33.893 10.858 14.524 14.263 28.501 9.304 33.893Z" fill="#0783ff"/>
      <path data-name="Tracciato 2115" d="M333.481 377.602a17.176 17.176 0 0 1-24.121 0c-6.424-6.992-2.011-25.1 12.061-43.928 14.075 18.824 18.489 36.936 12.06 43.928Z" fill="#0783ff"/>
      <g data-name="Raggruppa 637" transform="translate(201.034 475.08)" fill="#fff">
        <path data-name="Tracciato 2116" d="M210.299 60.882a15.812 15.812 0 1 0 15.812-15.812 15.812 15.812 0 0 0-15.812 15.812Z"/>
        <path data-name="Tracciato 2117" d="M145.716 8.073A8.077 8.077 0 1 0 153.793 0a8.077 8.077 0 0 0-8.077 8.073Z"/>
        <circle data-name="Ellisse 424" cx="6.788" cy="6.788" r="6.788" transform="translate(0 72.927)"/>
        <circle data-name="Ellisse 425" cx="11.879" cy="11.879" r="11.879" transform="translate(108.336 77.111)"/>
        <path data-name="Tracciato 2118" d="M37.437 30.534a20.311 20.311 0 1 0 20.31-20.309 20.312 20.312 0 0 0-20.31 20.309Z"/>
      </g>
    </g>
  </g>
</svg>
