<svg xmlns="http://www.w3.org/2000/svg" width="14.123" height="11.869" viewBox="0 0 14.123 11.869">
  <g id="Raggruppa_604" data-name="Raggruppa 604" transform="translate(-245.741 -131.568)">
    <g id="Raggruppa_603" data-name="Raggruppa 603" transform="translate(246.041 131.868)">
      <path id="Tracciato_2014" data-name="Tracciato 2014" d="M246.041,145.566v1.691a1.13,1.13,0,0,0,1.127,1.127h1.409v-2.817Z" transform="translate(-246.041 -137.114)" fill="none" stroke="#fff" stroke-linecap="round" stroke-linejoin="round" stroke-width="0.6"/>
      <rect id="Rettangolo_1648" data-name="Rettangolo 1648" width="2.536" height="2.817" transform="translate(0 5.635)" fill="none" stroke="#fff" stroke-linecap="round" stroke-linejoin="round" stroke-width="0.6"/>
      <path id="Tracciato_2015" data-name="Tracciato 2015" d="M248.577,131.868h-1.409a1.13,1.13,0,0,0-1.127,1.127v1.691h2.536Z" transform="translate(-246.041 -131.868)" fill="none" stroke="#fff" stroke-linecap="round" stroke-linejoin="round" stroke-width="0.6"/>
      <rect id="Rettangolo_1649" data-name="Rettangolo 1649" width="2.536" height="2.817" transform="translate(0 2.817)" fill="none" stroke="#fff" stroke-linecap="round" stroke-linejoin="round" stroke-width="0.6"/>
      <path id="Tracciato_2016" data-name="Tracciato 2016" d="M258.6,137.5v-5.635h-8.452v11.269H258.6V137.5Z" transform="translate(-247.615 -131.868)" fill="none" stroke="#fff" stroke-linecap="round" stroke-linejoin="round" stroke-width="0.6"/>
      <path id="Tracciato_2017" data-name="Tracciato 2017" d="M265.258,131.868h-1.409v2.817h2.535v-1.691A1.13,1.13,0,0,0,265.258,131.868Z" transform="translate(-252.861 -131.868)" fill="none" stroke="#fff" stroke-linecap="round" stroke-linejoin="round" stroke-width="0.6"/>
      <rect id="Rettangolo_1650" data-name="Rettangolo 1650" width="2.536" height="2.817" transform="translate(10.988 2.817)" fill="none" stroke="#fff" stroke-linecap="round" stroke-linejoin="round" stroke-width="0.6"/>
      <rect id="Rettangolo_1651" data-name="Rettangolo 1651" width="2.536" height="2.817" transform="translate(10.988 5.635)" fill="none" stroke="#fff" stroke-linecap="round" stroke-linejoin="round" stroke-width="0.6"/>
      <path id="Tracciato_2018" data-name="Tracciato 2018" d="M263.849,148.383h1.409a1.13,1.13,0,0,0,1.127-1.127v-1.691h-2.535Z" transform="translate(-252.861 -137.114)" fill="none" stroke="#fff" stroke-linecap="round" stroke-linejoin="round" stroke-width="0.6"/>
    </g>
    <path id="Tracciato_2019" data-name="Tracciato 2019" d="M257.482,139.808l-2.643-1.525a.164.164,0,0,0-.247.143v3.051a.165.165,0,0,0,.247.143l2.643-1.526A.165.165,0,0,0,257.482,139.808Z" transform="translate(-3.275 -2.448)" fill="none" stroke="#fff" stroke-linecap="round" stroke-linejoin="round" stroke-width="0.6"/>
  </g>
</svg>
