<svg version="1.1" id="Livello_1" xmlns="http://www.w3.org/2000/svg" x="0" y="0" viewBox="0 0 277.5 283.1" xml:space="preserve">
  <style>
    .st0{fill:#174ea6}
  </style>
  <path class="st0" d="M24.5 196l-.3-2.6 24.2-52.5.9.4h.2l.1.3v1.4l-24.2 52.9-.9.1zm74.6-54.5l1 .3 23.8-53.6-.2-1.3-.7.3-24.2 53.6.3.7zm128.3-.3l-39.9 87.7-39.7-87.6-24.8 54.9 27.2 60.1c7.6 16.8 21.5 26.8 37.3 26.8 15.7 0 29.7-10 37.2-26.8l27.6-60.4-24.9-54.7z"/>
  <path d="M224.9 26.7C217.3 10 203.5 0 187.8 0c-15.6 0-29.5 10-37.1 26.7L74.2 196.6l-24.8-55.3L24.5 196l16.3 36.1c6.7 14.9 19.2 23.8 33.4 23.8s26.7-8.9 33.4-23.8l80.2-177.9 64.5 142.1 25.2-55.2c0-.1-52.6-114.4-52.6-114.4z" fill="#4285f4"/>
  <path class="st0" d="M107.6 51.1c-6.7-14.9-19.2-23.8-33.4-23.8s-26.7 8.9-33.4 23.8L0 141l24.5 55L74.2 86.6l24.8 55 24.7-54.8-16.1-35.7z"/>
</svg>
