<svg viewBox="0 0 512 512" xmlns="http://www.w3.org/2000/svg">
  <path d="M512 256c0 57.187-18.756 110.007-50.448 152.618a257.694 257.694 0 01-55.129 54.554C364.189 493.881 312.215 512 256 512s-108.189-18.119-150.424-48.828a257.587 257.587 0 01-51.524-49.821 253.765 253.765 0 01-15.778-22.643 254.27 254.27 0 01-24.398-51.357C4.88 313.219 0 285.184 0 256s4.88-57.219 13.876-83.351a254.603 254.603 0 0120.302-44.523 255.208 255.208 0 0119.874-29.477 256.876 256.876 0 0142.569-42.987C140.351 20.814 195.741 0 256 0c60.27 0 115.66 20.825 159.389 55.662a257.007 257.007 0 0146.164 47.72C493.244 145.993 512 198.813 512 256z" fill="#f0efeb"/>
  <path d="M461.552 83.717v324.901a257.694 257.694 0 01-55.129 54.554H105.576a257.587 257.587 0 01-51.524-49.821v-22.643H38.275a254.27 254.27 0 01-24.398-51.357v-26.467a9.142 9.142 0 019.153-9.143h31.023v-88.649H23.03a9.141 9.141 0 01-9.153-9.143v-68.681a9.142 9.142 0 019.153-9.143h31.023V83.717c0-15.496 12.549-28.056 28.035-28.056h351.42c15.485.001 28.044 12.56 28.044 28.056z" fill="#4a8af8"/>
  <path d="M461.552 207.235v201.383a257.694 257.694 0 01-55.129 54.554H205.615l-75.786-75.786 86.309-86.956-14.211-40.145 40.145-53.52 58.734 9.665 84.961-84.982z" fill="#3c75e5"/>
  <g fill="#efefef">
    <path d="M434.909 221.784v75.267c0 4.85-1.962 9.244-5.141 12.422a17.485 17.485 0 01-12.41 5.141c-9.701 0-17.563-7.861-17.563-17.563v-75.267c0-9.701 7.861-17.563 17.563-17.563 9.69 0 17.551 7.862 17.551 17.563zM385.768 131.452c6.746 6.746 6.746 17.696 0 24.442l-61.863 61.863c7.616 12.054 12.042 26.338 12.042 41.659s-4.427 29.605-12.042 41.659l61.863 61.863c6.746 6.746 6.746 17.696 0 24.442-6.757 6.757-17.696 6.757-24.442 0l-61.863-61.863a77.683 77.683 0 01-41.659 12.054c-15.332 0-29.605-4.427-41.669-12.054l-61.863 61.863c-6.746 6.757-17.685 6.757-24.442 0-6.746-6.746-6.746-17.696 0-24.442l61.863-61.863c-7.616-12.054-12.042-26.338-12.042-41.659s4.427-29.605 12.042-41.659l-61.863-61.863c-6.746-6.746-6.746-17.696 0-24.442 6.757-6.757 17.696-6.757 24.442 0l61.863 61.863c12.065-7.627 26.338-12.054 41.669-12.054a77.683 77.683 0 0141.659 12.054l61.863-61.863c6.747-6.757 17.685-6.757 24.442 0zm-95.36 127.965c0-18.008-14.596-32.615-32.604-32.615-18.019 0-32.615 14.608-32.615 32.615s14.596 32.615 32.615 32.615c18.008 0 32.604-14.607 32.604-32.615z"/>
  </g>
</svg>
